<?xml version="1.0" standalone="no"?>
<!DOCTYPE svg PUBLIC "-//W3C//DTD SVG 1.1//EN" "http://www.w3.org/Graphics/SVG/1.1/DTD/svg11.dtd" >
<svg xmlns="http://www.w3.org/2000/svg">
<metadata></metadata>
<defs>
<font id="webfontuploaded_file" horiz-adv-x="894" >
<font-face units-per-em="2048" ascent="1583" descent="-465" />
<missing-glyph horiz-adv-x="409" />
<glyph unicode="&#xfb01;" horiz-adv-x="974" d="M-66 557q0 23 13 47q96 4 143 8q-6 98 -13 209t-12.5 175.5t-5.5 80.5q0 104 141.5 168t321.5 64q160 0 271.5 -53.5t111.5 -153.5q0 -61 -55 -97t-129 -36q-68 0 -117 30.5t-49 83.5q0 35 23.5 60.5t48.5 34.5l24 8q0 12 -30.5 33.5t-65.5 21.5t-66.5 -25.5t-62.5 -87 t-51.5 -186.5t-24.5 -301q57 12 117 37q14 0 42 -48t28 -89q0 -76 -105 -76h-82q4 -184 23.5 -481t19.5 -363q0 -96 -100 -96q-49 0 -115.5 22.5t-109.5 42.5l-43 23q76 178 75 625q0 74 -4 217l-71 -4q-27 0 -59 31.5t-32 74.5zM578 836q145 61 243 61q96 0 97 -115 q0 -51 -30 -201.5t-30 -228.5q0 -205 121 -352q-125 -47 -301 -47q-94 0 -94 160q0 55 16 214.5t16 250.5q1 152 -38 258z" />
<glyph unicode="&#xfb02;" horiz-adv-x="985" d="M-66 557q0 23 13 47q96 4 143 8q-6 98 -13 209t-12.5 175.5t-5.5 80.5q0 160 209 199q82 51 168 51q96 0 158 -33q-10 172 -49 267q160 88 268 88q100 0 100 -96.5t-17 -462t-17 -564.5q0 -479 86 -575q-117 -20 -179 -21q-121 0 -167 84t-46 316q0 106 10.5 339.5 t12.5 331.5q-61 -45 -156 -45q10 35 11 80q0 84 -41 135q-61 -152 -62 -530q64 10 119 37q14 0 42 -48t28 -89q0 -76 -105 -76h-82q6 -166 24.5 -463t18.5 -381q0 -96 -100 -96q-49 0 -115.5 22.5t-109.5 42.5l-43 23q76 178 75 625q0 74 -4 217l-71 -4q-27 0 -59 31.5 t-32 74.5z" />
<glyph horiz-adv-x="2048" />
<glyph horiz-adv-x="2048" />
<glyph unicode="&#xd;" horiz-adv-x="681" />
<glyph unicode=" "  horiz-adv-x="409" />
<glyph unicode="&#x09;" horiz-adv-x="409" />
<glyph unicode="&#xa0;" horiz-adv-x="409" />
<glyph unicode="!" horiz-adv-x="581" d="M41 1624q0 154 192 154q129 0 256 -66q-41 -47 -63 -217q-57 -401 -57 -633q0 -180 32 -260q-90 -57 -176 -57q-82 0 -119 71q-63 703 -65 1008zM72 152q0 104 56 189t142 85q92 0 143.5 -67.5t51.5 -163.5q0 -100 -55.5 -177t-147.5 -77q-96 0 -143 60t-47 151z" />
<glyph unicode="&#x22;" horiz-adv-x="741" d="M70 1577q49 72 149 72q51 0 84 -27t33 -80q0 -94 -11.5 -202.5t-21.5 -170.5l-12 -61q-10 -70 -72 -70q-37 0 -82 22.5t-53 37.5q12 139 12 225q0 150 -26 254zM391 1630q49 72 150 72q51 0 83.5 -27t32.5 -80q0 -94 -11 -202.5t-23 -169.5l-11 -62q-10 -70 -71 -69 q-37 0 -82 22.5t-53 36.5q12 139 12 225q0 150 -27 254z" />
<glyph unicode="#" horiz-adv-x="1259" d="M74 594q0 20 6 37.5t12 23.5l6 7q127 -10 236 -13v70q0 53 -2 82q-109 0 -168.5 10t-74.5 22.5t-15 32.5q0 33 30 82h222q-16 203 -45 314q76 47 145 47q55 0 88 -32t35 -87v-14q0 -25 -4 -88.5t-4 -94.5v-41q70 0 168 4q-12 188 -43 306q76 47 145 47q55 0 88 -32 t35 -87v-14q0 -25 -4 -88.5t-4 -94.5v-28l194 16q35 -47 35 -90q0 -102 -227 -103q0 -76 2 -110q61 8 108 20.5t64 18.5l18 8q35 -47 35 -90q0 -55 -60.5 -87t-160.5 -34l12 -266q0 -63 -76 -64q-37 0 -88 14.5t-84 28.5l-32 15q33 106 45 272h-162l12 -266q0 -63 -76 -64 q-37 0 -88 14.5t-84 28.5l-32 15q33 106 45 272h-140q-113 0 -112 80zM543 795l2 -146q162 6 174 6v64q0 47 -2 76h-174z" />
<glyph unicode="$" horiz-adv-x="909" d="M66 629q0 88 61 178q68 -68 168 -68q92 0 92 68q0 27 -44 67.5t-96 82.5t-96.5 112t-44.5 145q0 166 189 246q-37 170 -133 215q131 51 235 51q125 0 125 -96q0 -53 -6 -129q109 -4 180.5 -52t71.5 -130q0 -88 -89 -160t-239 -72q56 92 56 160q0 61 -64 62q-41 0 -79 -28 t-38 -67q0 -43 23.5 -75.5t49.5 -49t79 -43t78 -40.5q207 -125 207 -285q0 -86 -62.5 -156.5t-171.5 -105.5q0 -29 22.5 -166t22.5 -156q0 -53 -51 -53q-63 0 -147 73.5t-84 143.5q0 82 2 127q-106 8 -161.5 63.5t-55.5 137.5z" />
<glyph unicode="%" horiz-adv-x="2437" d="M80 1243q0 217 80 381t200 164q33 0 74 -10q94 123 209 123q176 0 272 -164q227 -100 537 -101q172 0 398.5 43t228.5 43q190 0 274 -221q-170 0 -441.5 -172t-525 -415.5t-458.5 -527.5t-256 -488q-33 -4 -76 -4q-205 -1 -205 79q0 74 166 334t442.5 592t530.5 545 q-254 12 -545 112q23 -100 23 -200q0 -174 -52.5 -333t-164 -266.5t-256.5 -107.5q-156 0 -262.5 90t-149.5 219t-43 285zM354 1233q0 -158 72 -245t168 -87q86 0 132 91t46 222q0 147 -55 261t-152 114q-86 0 -86 -57q0 -37 35 -86t72 -76q-102 -80 -176 -80q-33 0 -54 15 q-2 -25 -2 -72zM1300 426q0 217 80 381t201 164q33 0 74 -10q94 122 209 122q176 0 270 -157.5t94 -386.5q0 -174 -52 -333t-163.5 -266.5t-257.5 -107.5q-156 0 -262.5 90t-149.5 219t-43 285zM1575 416q0 -158 72 -245t168 -87q86 0 132 91t46 222q0 147 -55.5 261 t-151.5 114q-86 0 -86 -57q0 -37 34.5 -86t71.5 -76q-102 -80 -176 -80q-33 0 -53 14q-2 -25 -2 -71z" />
<glyph unicode="&#x26;" horiz-adv-x="1751" d="M29 295q0 156 117.5 302t351.5 237v14q-369 164 -369 393q0 133 121 250t297 180.5t352 63.5q223 0 355 -94.5t132 -225.5q0 -84 -60 -160.5t-179 -128.5q-4 78 -87 123t-198 45q-147 0 -257.5 -73.5t-110.5 -212.5q0 -47 43 -83t120 -36q66 0 156 33q18 6 31 6 q37 0 37 -41q0 -14 -4.5 -30.5t-8.5 -27.5l-4 -10q-150 -29 -252 -78t-148 -104t-62.5 -98t-16.5 -88q0 -76 67.5 -114t178.5 -38q131 0 274.5 48t257 145.5t133.5 218.5q-78 -23 -307 -74q-55 0 -55 61q0 35 18.5 87.5t34.5 86.5l19 33q41 14 137 43t146 48.5t132 75.5 t162 142q23 -8 57.5 -17t52 -15t38 -17.5t28.5 -26.5t8 -38q0 -219 -321 -340q66 -66 65 -160q0 -106 -80.5 -228t-216 -226.5t-334 -173t-411.5 -68.5q-199 0 -319.5 113.5t-120.5 277.5z" />
<glyph unicode="'" horiz-adv-x="419" d="M70 1577q49 72 149 72q51 0 84 -27t33 -80q0 -94 -11.5 -202.5t-21.5 -170.5l-12 -61q-10 -70 -72 -70q-37 0 -82 22.5t-53 37.5q12 139 12 225q0 150 -26 254z" />
<glyph unicode="(" horiz-adv-x="561" d="M-25 778q0 315 70 592t215.5 461t339.5 184q150 0 311 -108q-328 -281 -476 -604.5t-148 -649.5q0 -317 123 -574t297 -355q-106 -63 -199 -64q-162 0 -288 176t-185.5 427t-59.5 515z" />
<glyph unicode=")" horiz-adv-x="737" d="M-281 -233q328 281 476.5 604t148.5 649q0 317 -123 574.5t-297 355.5q106 63 199 63q162 0 288 -176t185 -427t59 -515q0 -315 -69.5 -591.5t-215 -461t-339.5 -184.5q-150 0 -312 109z" />
<glyph unicode="*" horiz-adv-x="1046" d="M49 1165q0 61 38 110.5t95 49.5q16 0 31.5 -4t33 -13.5t29 -16.5t30 -24.5t25.5 -22.5t27.5 -26.5t22.5 -23.5q-23 90 -55.5 154.5t-55.5 83.5l-22 18q43 63 135 63q57 0 96 -34.5t39 -104.5q0 -41 -35 -145q57 59 91 114.5t40 81.5l4 27q53 -2 97.5 -51t44.5 -107 q0 -45 -37 -78.5t-74 -47t-100 -29.5q20 -4 47 -4q39 0 89 5t86 13t34 14q18 -31 18 -69q0 -61 -37 -110.5t-96 -49.5q-23 0 -43 6t-44.5 23.5t-35 24.5t-40 35t-31.5 30q23 -88 54.5 -149.5t51.5 -80.5l23 -16q-43 -61 -133 -61q-59 0 -97.5 33.5t-38.5 103.5 q0 25 7.5 54.5t18.5 65t15 50.5q-66 -66 -101.5 -127.5t-37.5 -89.5l-4 -31q-51 0 -96 50t-45 110q0 98 176 153h-74q-47 0 -84 -7t-49 -13l-14 -8q-18 31 -19 71z" />
<glyph unicode="+" horiz-adv-x="1259" d="M74 719q0 20 7 44.5t15 39.5l8 14q291 0 406 2q-10 287 -51 443q76 47 145 47q55 0 88 -32t35 -87l-8 -365q133 4 233.5 10.5t132.5 10.5l35 4q35 -47 35 -90q0 -55 -62.5 -88t-164.5 -33h-205l16 -391q0 -63 -75 -64q-37 0 -88.5 14.5t-83.5 28.5l-33 15q45 143 51 397 h-324q-113 0 -112 80z" />
<glyph unicode="," horiz-adv-x="542" d="M63 199q0 82 54.5 147.5t148.5 65.5q98 0 146.5 -68t48.5 -172q0 -145 -77 -272t-183 -127q-61 0 -109 39q123 76 123 178q0 33 -8 49q-68 2 -106 48t-38 112z" />
<glyph unicode="-" horiz-adv-x="1079" d="M33 397q0 90 51 154.5t147 64.5q92 0 279.5 -52t263.5 -52q143 0 197 127q80 -61 80 -190q0 -90 -51.5 -155t-147.5 -65q-57 0 -236.5 61.5t-271.5 61.5q-160 0 -231 -145q-80 61 -80 190z" />
<glyph unicode="." horiz-adv-x="485" d="M39 117q0 84 57.5 151.5t143.5 67.5q92 0 142 -54.5t50 -129.5q0 -82 -54.5 -142.5t-146.5 -60.5q-96 0 -144 48t-48 120z" />
<glyph unicode="/" horiz-adv-x="593" d="M-207 -250q88 72 215 539q41 154 127 497.5t170 689t101 410.5q20 78 77 78q37 0 90.5 -36t87 -69.5t33.5 -37.5q-70 -100 -151 -410q-37 -137 -181.5 -709.5t-168.5 -664.5q-53 -199 -107.5 -291t-124.5 -92q-68 0 -168 96z" />
<glyph unicode="0" horiz-adv-x="1437" d="M14 811q0 217 54.5 410.5t157 316.5t229.5 123q53 0 112 -16q150 192 326 192q186 0 318 -122t191.5 -310t59.5 -418q0 -201 -49 -394.5t-139 -353t-233.5 -257t-315.5 -97.5q-147 0 -269 52.5t-202 141.5t-135.5 209t-80 251t-24.5 272zM444 766q0 -268 114 -429 t259 -161q137 0 213 181.5t76 435.5q0 172 -34 323.5t-106.5 254t-170.5 102.5q-141 0 -142 -140q0 -84 49.5 -184t102.5 -139q-166 -125 -275 -125q-45 0 -77 22q-8 -66 -9 -141z" />
<glyph unicode="1" horiz-adv-x="649" d="M-201 1229q0 74 54 139q141 18 244.5 141t187.5 334q242 -152 241 -313q0 -88 -71 -176q-8 -258 -9 -416q0 -698 179 -860q-23 -16 -60 -40t-131 -62.5t-166 -38.5q-51 0 -81.5 22.5t-46 74.5t-20.5 110.5t-5 152.5q0 121 13 411.5t13 419.5q-96 -57 -188 -57 q-72 0 -113 46t-41 112z" />
<glyph unicode="2" horiz-adv-x="1372" d="M4 256q0 82 162 219t360.5 262t396 255t246.5 188q-6 74 -141 73q-186 0 -451.5 -115.5t-340.5 -250.5q-180 147 -181 311q0 215 287 373t692 158q82 0 201 -167t119 -317q0 -123 -127 -198q-145 -84 -262 -176.5t-183.5 -164t-112.5 -138t-61.5 -103.5t-17.5 -55 q236 27 346 26q180 0 272 -58.5t92 -205.5q0 -86 -32 -205q-301 61 -592 62q-338 -1 -473 -103q-90 61 -144.5 162.5t-54.5 167.5z" />
<glyph unicode="3" horiz-adv-x="1253" d="M-90 1229q0 129 149.5 252t352 191.5t372.5 68.5q244 0 371 -73t127 -195q0 -113 -106.5 -248t-309.5 -269q193 -45 288 -151.5t95 -245.5q0 -113 -60.5 -229.5t-163.5 -211.5t-253.5 -154.5t-316.5 -59.5q-207 0 -329 140t-122 306q0 96 47 158.5t133 62.5q51 0 52 -12 q-20 -14 -21 -37q0 -35 40 -69.5t89 -34.5q244 2 396.5 91t152.5 187q0 49 -46 80t-134 31q-154 0 -387 -94q-33 4 -58.5 21.5t-25.5 37.5q0 27 45 43q90 35 261 117t342 190.5t171 161.5q0 47 -139 47q-184 0 -426 -93t-410 -269q-176 121 -176 260z" />
<glyph unicode="4" horiz-adv-x="1351" d="M-4 608q0 106 143.5 300t313.5 363t355 347t224 225q12 -10 29.5 -28.5t46.5 -69.5t29 -94q0 -27 -9 -45q10 -25 11 -54q0 -98 -13.5 -371.5t-17.5 -375.5q236 -37 235 -172q0 -109 -155 -273q-59 10 -82 13q10 -322 84 -402q-117 -18 -197 -18q-109 0 -154.5 48 t-45.5 167q0 123 6 221q-416 -12 -604 -156q-104 68 -151.5 180.5t-47.5 194.5zM442 770q225 39 377 47q4 168 4 311q0 82 -8 213q-145 -135 -235.5 -267t-108.5 -195l-18 -64q-10 -37 -11 -45z" />
<glyph unicode="5" horiz-adv-x="1320" d="M-8 252q0 84 33 190q59 -14 143 -14q170 0 370.5 58.5t338 143.5t137.5 158q0 37 -55.5 57.5t-143.5 20.5q-123 0 -255 -39t-214 -110q-98 33 -133 91t-35 165q0 4 10 219q0 2 -10 11t-25.5 33t-32 61.5t-28.5 113.5t-16 174q0 4 11 15.5t15 11.5q119 53 416 109.5 t535 56.5q127 0 179 -89.5t52 -215.5q0 -98 -22 -175q-229 -2 -410.5 -19t-277 -41t-158 -46.5t-80.5 -38.5l-17 -16q-12 -33 -12 -80q0 -68 27 -76q248 90 446 90q240 0 369 -123t129 -311q0 -125 -59.5 -250t-167 -231.5t-282.5 -173t-384 -66.5q-45 0 -93 8t-103.5 30.5 t-97.5 58.5t-70.5 97.5t-28.5 141.5z" />
<glyph unicode="6" horiz-adv-x="1378" d="M16 539q0 268 102.5 550.5t275.5 475t356 192.5q145 0 215.5 -75.5t70.5 -161.5q0 -27 -6 -45q-276 -127 -483 -455q217 82 389 82q213 0 322.5 -117t109.5 -299q0 -133 -57.5 -271.5t-158.5 -254t-257 -190t-334 -74.5q-279 0 -412 178t-133 465zM348 471 q0 -96 41 -150.5t123 -54.5q186 0 324.5 146.5t138.5 300.5q0 86 -55 140t-168 54q-121 0 -310 -71q-94 -205 -94 -365z" />
<glyph unicode="7" horiz-adv-x="1118" d="M-39 1456q0 90 60.5 136t186.5 58.5t264 12.5t350 8t388 37q70 -129 70 -235q0 -51 -15.5 -94.5t-38 -70t-46 -46t-37.5 -25.5l-17 -8l13 -103q-88 -129 -241 -315t-255 -313t-193.5 -290t-111.5 -304q-12 2 -31.5 7t-70 28.5t-88 53.5t-69.5 86t-32 124q0 371 871 1005 q-180 0 -394.5 -16t-339.5 -33l-123 -16q-100 199 -100 313z" />
<glyph unicode="8" horiz-adv-x="1347" d="M-80 1186q0 154 195.5 296t463 221t496.5 79q156 0 215.5 -51t59.5 -164q0 -29 -9 -111l29 12q72 -14 72 -75q0 -27 -13.5 -62t-27.5 -55l-12 -21q-301 -135 -555 -278q248 -66 346 -165t98 -200q0 -121 -72.5 -250t-191.5 -231t-286 -168.5t-341 -66.5 q-178 0 -265 117.5t-87 295.5q0 287 426 625q-61 4 -99 4q-119 0 -212 -10l-21 -43q-209 145 -209 301zM242 1055q176 -8 342 -29q260 182 553 332q-394 -33 -668 -154q-135 -61 -227 -149zM254 475q0 -78 145 -78q53 0 139.5 24.5t176.5 66.5t155.5 110.5t67.5 144.5 q-2 43 -64.5 86t-171.5 70q-215 -135 -331.5 -245.5t-116.5 -178.5z" />
<glyph unicode="9" horiz-adv-x="1224" d="M-35 909q0 133 69.5 274.5t191.5 260.5t311.5 195.5t406.5 76.5q84 0 174 -12q57 -8 99.5 -61.5t42.5 -122.5q0 -80 -58 -152q-104 20 -205 21q-154 0 -280.5 -48.5t-201.5 -122t-115 -155.5t-40 -158t39 -123t111 -47q90 0 182 67.5t135 227.5q1 146 -36 232 q133 45 241 45q143 0 144 -101q0 -92 -39 -365.5t-39 -418.5q0 -272 108 -422q-37 -8 -108.5 -29.5t-124.5 -34t-94 -12.5q-145 0 -146 189q0 70 12.5 172t33 243.5t30.5 225.5q-100 -102 -226 -157.5t-247 -55.5q-162 0 -266.5 95t-104.5 273z" />
<glyph unicode=":" horiz-adv-x="485" d="M39 117q0 84 57.5 151.5t143.5 67.5q92 0 142 -54.5t50 -129.5q0 -82 -54.5 -142.5t-146.5 -60.5q-96 0 -144 48t-48 120zM41 709q0 84 57.5 151.5t143.5 67.5q92 0 142 -54.5t50 -129.5q0 -82 -54.5 -142.5t-146.5 -60.5q-96 0 -144 48t-48 120z" />
<glyph unicode=";" horiz-adv-x="571" d="M63 199q0 82 54.5 147.5t148.5 65.5q98 0 146.5 -68t48.5 -172q0 -145 -77 -272t-183 -127q-61 0 -109 39q123 76 123 178q0 33 -8 49q-68 2 -106 48t-38 112zM64 709q0 84 57.5 151.5t143.5 67.5q92 0 142 -54.5t50 -129.5q0 -82 -54.5 -142.5t-146.5 -60.5 q-96 0 -144 48t-48 120z" />
<glyph unicode="&#x3c;" horiz-adv-x="1011" d="M0 795q0 43 11.5 93t21.5 52q199 20 444.5 112.5t366.5 192.5q41 -25 80 -82t39 -110q0 -98 -144 -136q-180 -43 -316 -68.5t-181 -29.5l-46 -4q123 -12 270.5 -69.5t262.5 -149.5t115 -182q0 -104 -197 -195q-82 143 -177 245.5t-193.5 159t-176.5 85t-170 45.5 q-10 4 -10 41z" />
<glyph unicode="=" horiz-adv-x="1259" d="M74 574q0 20 7 44.5t15 39.5l8 14q350 0 604.5 8.5t331.5 16.5l80 8q35 -47 35 -90q0 -55 -62.5 -88t-164.5 -33h-742q-113 0 -112 80zM74 860q0 20 7 44.5t15 39.5l8 14q350 0 604.5 8.5t331.5 16.5l80 8q35 -47 35 -90q0 -55 -62.5 -88t-164.5 -33h-742q-113 0 -112 80 z" />
<glyph unicode="&#x3e;" horiz-adv-x="1011" d="M0 1037q0 53 39 110.5t80 81.5q121 -100 366.5 -192t444.5 -113q10 -2 21.5 -52t11.5 -93q0 -37 -11 -41q-92 -16 -169.5 -45t-176 -85.5t-194 -158.5t-176.5 -246q-197 90 -197 195q0 90 114.5 182t262 149.5t270.5 69.5q-135 4 -543 103q-143 37 -143 135z" />
<glyph unicode="?" horiz-adv-x="1040" d="M-66 1352q0 102 87.5 189t220.5 140.5t285.5 84t291.5 30.5q182 0 295 -82t123 -299q43 -76 43 -127q0 -68 -102 -153q-16 -12 -132 -63.5t-233 -107t-215 -139.5t-98 -163q0 -39 20 -74q-59 -23 -123 -23q-96 0 -159.5 48.5t-63.5 125.5q0 133 202 286t636 282 q-72 41 -187 41q-158 0 -351 -76t-365 -221q-174 160 -175 301zM141 195q0 104 57.5 189t143.5 85q92 0 142.5 -67.5t50.5 -163.5q0 -100 -54.5 -177t-146.5 -77q-96 0 -144.5 60t-48.5 151z" />
<glyph unicode="@" horiz-adv-x="2037" d="M53 416q0 203 70 394t194.5 343t314 243t412.5 91q233 0 413.5 -64.5t287 -173t160 -240.5t53.5 -282q0 -147 -52.5 -289.5t-144.5 -254t-232 -180.5t-302 -69q-74 0 -102.5 70t-39.5 211q-82 -168 -159.5 -223t-161.5 -55q-111 0 -168 102t-57 262t51 316.5t156.5 268 t236.5 111.5q125 0 174 -170q57 14 98 15q86 0 86 -64q0 -90 -7 -217t-7 -172q0 -133 43 -237q129 0 210 135t81 323q0 125 -40 242t-121 218t-222 162.5t-324 61.5q-203 0 -362.5 -116.5t-240.5 -296t-81 -383.5q0 -162 56.5 -307.5t167 -266.5t300 -192.5t433.5 -71.5 q221 0 463 55q80 -98 79 -190q0 -98 -96 -158.5t-282 -60.5q-274 0 -499.5 62.5t-379.5 169t-259.5 249.5t-152.5 301t-47 328zM848 260q0 -86 31 -86q51 0 114.5 106.5t63.5 264.5q0 41 -6 86q-8 55 -29 114q-76 -70 -125 -221t-49 -264z" />
<glyph unicode="A" horiz-adv-x="1482" d="M-172 543q-1 41 22 84q166 8 254 14q72 256 182.5 515t227.5 434t191 175q31 0 70.5 -5t91 -17t89 -40t43.5 -65q27 -104 79 -340.5t91 -389t96.5 -339t127 -313.5t149.5 -193q-117 -133 -223 -133q-193 0 -352 424q-240 0 -572 17q-82 -258 -110 -410 q-129 10 -194.5 69.5t-65.5 151.5q0 80 20 207l-39 4q-57 0 -117.5 40t-60.5 110zM500 674q215 27 350 69q-56 217 -109 508h-12q-115 -264 -229 -577z" />
<glyph unicode="B" horiz-adv-x="1542" d="M-106 993q0 154 116.5 310.5t291.5 269.5t383 184.5t386 71.5q164 0 287 -100.5t123 -243.5q0 -123 -103.5 -249t-324.5 -235q238 -6 348 -96t110 -233q0 -115 -64.5 -247t-161.5 -239.5t-219 -179.5t-230 -72q-106 0 -183 68q-157 -90 -247 -90q-61 0 -89 81t-31 214 q-2 100 -2 205v72v18q0 136 -14 278q-14 152 -53 244q-98 -109 -123 -246q-113 0 -156.5 57.5t-43.5 157.5zM227 1036q147 82 256 82q101 0 101 -96q0 -39 -4 -109q256 102 402 205t146 168q0 63 -137 64q-166 0 -395 -83t-369 -231zM545 393q0 -66 6 -125q270 88 423.5 209 t153.5 219q0 61 -64.5 98t-189.5 37q-131 0 -303 -40q-26 -363 -26 -398z" />
<glyph unicode="C" horiz-adv-x="1239" d="M2 662q0 475 317 923q217 307 349 307q82 0 186 -56t183 -155.5t79 -203.5q0 -33 -27.5 -72t-59.5 -73t-59.5 -98.5t-27.5 -141.5q0 -55 10 -105q-127 6 -191.5 58.5t-72.5 183.5q-59 0 -143 -115t-147.5 -286t-63.5 -308q0 -270 252 -270q117 0 242.5 126t150.5 275 q117 0 178.5 -57t61.5 -162q0 -82 -41 -177t-113 -180t-182.5 -141.5t-235.5 -56.5q-293 0 -469 220t-176 565z" />
<glyph unicode="D" horiz-adv-x="1824" d="M-18 1014q0 154 116.5 310.5t291.5 269t383 184t386 71.5q281 0 460 -166.5t179 -484.5q0 -283 -121 -572.5t-341 -490.5t-472 -201q-88 6 -162 76q-115 -55 -186 -55q-59 0 -87 80t-32 213q-3 106 -3 219v57v19q0 133 -13 275q-14 152 -51 245q-125 -129 -148 -264 q-113 0 -156.5 57t-43.5 158zM352 1087q147 74 242 74q100 0 100 -96q0 -111 -19.5 -325t-19.5 -304q0 -43 2 -65q172 41 326 137t254 213t157.5 240.5t57.5 228.5q0 111 -67.5 177.5t-200.5 66.5q-156 0 -412 -96.5t-420 -250.5z" />
<glyph unicode="E" horiz-adv-x="1470" d="M-53 287q0 141 103.5 273t309.5 216v15q-145 66 -223 189.5t-78 260.5q0 141 134.5 268t329 199t381 72t304 -84t117.5 -256q0 -104 -54 -174t-153 -70q4 8 4 23q0 43 -64.5 68.5t-160.5 25.5q-178 0 -325.5 -79t-147.5 -226q0 -82 127 -82q152 0 450 108q18 6 31 6 q37 0 37 -41q0 -14 -4 -30.5t-8 -26.5l-4 -10q-283 -102 -514.5 -240.5t-231.5 -216.5q0 -59 160 -59q90 0 183 19.5t198.5 63.5t204 132t168.5 211q221 -59 221 -242q0 -106 -81 -228t-216 -226.5t-334 -173t-412 -68.5q-205 0 -328.5 112.5t-123.5 270.5z" />
<glyph unicode="F" horiz-adv-x="1054" d="M-12 1061q0 137 119.5 276.5t295 239.5t377 163.5t365.5 63.5q215 0 215 -121q0 -109 -180 -348q-33 0 -91.5 -6t-230.5 -60.5t-336 -152.5q39 -18 39 -78l-8 -288q158 78 324 219q180 -49 180 -184.5t-134.5 -222.5t-369.5 -146q16 -289 158 -398q-211 -94 -328 -94 q-74 0 -97.5 108.5t-25.5 321.5q-33 -6 -178 -32q-70 0 -70 61q0 35 22.5 87t45.5 87l22 33q119 33 156 45q-8 176 -27 270q-51 -43 -116 -108q-127 125 -127 264z" />
<glyph unicode="G" horiz-adv-x="1314" d="M20 662q0 469 318 923q8 10 54 68.5t71.5 87t68.5 70.5t81 61.5t73 19.5q82 0 186.5 -56t183.5 -155.5t79 -203.5q0 -33 -27 -63t-57.5 -50.5t-57 -71.5t-26.5 -123q0 -55 10 -104q-127 6 -191.5 58.5t-72.5 183.5q-59 0 -144.5 -124t-150 -309.5t-64.5 -334.5 q0 -289 250 -289q96 0 198.5 84t151.5 205q-61 -10 -116 -11q-53 0 -154.5 98.5t-101.5 161.5q0 54 84 54q113 2 213 27.5t162.5 61.5t108.5 71.5t67 60.5l18 24q63 -39 106 -103t43 -136q0 -164 -229 -252q82 -55 82 -164q0 -82 -41 -177t-112.5 -180t-182 -141.5 t-235.5 -56.5q-293 0 -469.5 220t-176.5 565z" />
<glyph unicode="H" horiz-adv-x="1396" d="M-117 745q0 41 23 84q164 0 239 5q2 82 2 305q0 399 -67 544q170 80 289 80q116 0 116 -98q0 -71 -9 -337q-9 -265 -9 -429v-47q219 23 356 51q2 102 2 144q0 520 -61 661q154 45 280 45q168 0 168 -100q0 -72 -21.5 -305.5t-27.5 -350.5q37 16 65.5 31.5t39.5 24.5l10 6 q76 -39 118 -102.5t42 -135.5q0 -94 -72 -167.5t-207 -96.5q25 -381 170 -491q-276 -98 -393 -99q-66 0 -88.5 149.5t-24.5 432.5q-231 8 -348 14q33 -459 170 -583q-14 -12 -42 -31t-105.5 -50.5t-149.5 -31.5q-211 0 -211 588l6 133l-82 8q-57 0 -117.5 40t-60.5 109z" />
<glyph unicode="I" horiz-adv-x="538" d="M-25 1686q0 25 25 26h166q127 0 198.5 -31.5t71.5 -119.5q-39 -211 -39 -484q0 -238 35 -600t35 -438q0 -96 -117 -96q-57 0 -135 21.5t-127 43.5l-49 23q65 148 65 507v11q0 395 -65 919q-18 164 -64 218z" />
<glyph unicode="J" horiz-adv-x="1044" d="M-10 178q0 109 76.5 213.5t220.5 165.5q20 -80 114.5 -204t165.5 -124q104 0 105 301q0 631 -56 834q-20 -6 -67 -20.5t-71.5 -21.5t-59.5 -16.5t-62.5 -13.5t-50.5 -4q-119 0 -119 127q0 117 93 348q109 -59 266 -59q78 0 186.5 11t198.5 11q96 0 165.5 -37.5 t69.5 -113.5q0 -47 -28.5 -103.5t-57.5 -87.5l-28 -32q-54 65 -163 65h-3q-57 0 -129 -16q268 -27 268 -152q0 -100 -8 -205.5t-26.5 -300t-31.5 -337.5q-12 -156 -118.5 -275t-245.5 -173t-281 -54q-154 0 -238.5 78.5t-84.5 195.5z" />
<glyph unicode="K" horiz-adv-x="1171" d="M2 31q0 72 26.5 197.5t53.5 350t27 535.5q0 90 -19.5 270.5t-19.5 212.5q0 152 190 152q180 0 258 -63q-45 -53 -63 -218q-29 -219 -45 -434q156 98 295 300t227 462q379 -27 379 -235q0 -143 -180.5 -326.5t-460.5 -331.5q131 -510 583 -874q-184 -109 -325 -109 q-78 0 -144.5 33t-112.5 81t-87 127t-64.5 144.5t-47 163.5t-33 152.5t-23.5 142.5l-4 24l-17 -4q-6 -121 -6 -235q0 -369 66 -518q-209 -96 -336 -97q-117 0 -117 97z" />
<glyph unicode="L" horiz-adv-x="1052" d="M-141 123q0 41 14 86q260 0 465 31q-63 37 -106.5 82t-43.5 84q0 98 19.5 366t19.5 406q0 426 -157 497q184 51 329 51q174 0 174 -96q0 -66 -33.5 -411t-33.5 -551q0 -236 39 -381q115 37 182.5 88t79.5 84l10 30q111 -55 183.5 -140t72.5 -165q0 -57 -41 -101 t-118.5 -70.5t-157.5 -43t-191.5 -23.5t-184.5 -9.5t-169 -2.5q-352 0 -352 189z" />
<glyph unicode="M" horiz-adv-x="1671" d="M-45 164q0 59 2 85.5t9 60.5t27.5 106.5t48.5 171t84 307.5t122 467q-70 172 -111 235q68 88 223 89q98 0 174 -37t84 -95q37 -309 76 -507.5t60 -243.5l20 -43q6 4 17.5 15t43 63.5t61.5 123t69 204.5t67 300q-2 47 -10 131q20 63 121 64q88 0 183 -42t104 -83 q4 -745 75.5 -1121t241.5 -384q-129 -207 -350 -207q-68 0 -120 52t-85 135t-57.5 214t-38 259t-23.5 302q-133 -430 -176 -786q-14 -14 -57 -14q-57 0 -120 18.5t-65 38.5q-115 453 -252 877q-32 -254 -32 -430v-11q0 -330 100 -538q-31 -2 -78 -2q-68 0 -131 8t-139 28.5 t-122 69.5t-46 119z" />
<glyph unicode="N" horiz-adv-x="1304" d="M57 410q0 164 28 510t28 469q0 168 -43 235q63 84 219 84q104 0 189 -40t93 -99q70 -600 310 -998q53 453 53 713q0 268 -45 428q190 106 321 107q121 0 121 -115q0 -92 -65.5 -560t-65.5 -720q0 -307 84 -447q-118 -22 -220 -22h-9q-66 0 -116 8t-73.5 20.5t-25.5 24.5 q-141 555 -490 1163q-8 -193 -8 -299q0 -612 233 -897q-158 -63 -258 -63q-106 0 -165.5 68.5t-77 169t-17.5 260.5z" />
<glyph unicode="O" horiz-adv-x="1509" d="M20 811q0 217 54.5 410.5t157 316.5t229.5 123q63 0 141 -25q139 201 297 201q186 0 318.5 -122t191.5 -310t59 -418q0 -201 -49 -394.5t-139 -353t-233.5 -257t-315.5 -97.5q-147 0 -269 52.5t-202 141.5t-135 209t-80 251t-25 272zM465 639q29 -231 140.5 -369.5 t240.5 -138.5q94 0 162.5 99.5t100.5 249t32 325.5q0 182 -33 340t-104.5 263t-167.5 105q-90 0 -136.5 -105t-46.5 -259q0 -160 47.5 -296t124.5 -165q-141 -106 -239 -106q-74 0 -121 57z" />
<glyph unicode="P" horiz-adv-x="1032" d="M-115 993q0 176 186.5 375t450.5 331t482 132q174 0 275 -98.5t101 -309.5q0 -152 -67.5 -291t-171 -234t-226 -152.5t-233.5 -57.5q-78 0 -119 45q-10 -236 -10 -272q0 -344 147 -461q-260 -78 -376 -78q-94 0 -95 223q0 72 13.5 262.5t13.5 290.5q0 221 -49 332 q160 88 268 88q100 0 100 -96q0 -55 -4 -166q221 78 322.5 179.5t101.5 195.5q0 125 -172 125q-135 0 -306 -74t-302 -204t-131 -265q0 -23 2 -35q-113 0 -157 57.5t-44 157.5z" />
<glyph unicode="Q" horiz-adv-x="1490" d="M20 811q0 217 54.5 410.5t157 316.5t229.5 123q53 0 108 -16q109 192 330 192q186 0 318.5 -122t191.5 -310t59 -418q0 -244 -69.5 -474t-198.5 -388q201 -170 385 -170q43 0 78 8q10 -47 10 -80q0 -63 -26.5 -110t-69.5 -68.5t-82 -31t-78 -9.5q-250 0 -479 260 q-100 -39 -207 -39q-147 0 -269 52.5t-202 141.5t-135 209t-80 251t-25 272zM457 772q0 -254 96 -424t229 -209q-117 199 -195.5 438.5t-101.5 469.5q-28 -138 -28 -275zM653 1149q0 -182 109.5 -427t277.5 -441q101 192 101 524q0 182 -33 340t-104.5 263t-167.5 105 q-90 0 -136.5 -105t-46.5 -259z" />
<glyph unicode="R" horiz-adv-x="1382" d="M-66 993q0 176 186.5 375t451 331t481.5 132q203 0 312.5 -99.5t109.5 -254.5q0 -197 -165 -391.5t-458 -292.5q125 -16 209 -92t125 -178.5t68.5 -205t61.5 -191.5t83 -120q-176 -106 -316 -106q-165 0 -165 194q0 31 2 45q6 80 6 146q0 229 -64.5 330.5t-159.5 101.5 q-51 0 -88 41q-12 -205 -12 -297q0 -344 148 -461q-260 -78 -377 -78q-94 0 -94 223q0 72 13 262.5t13 290.5q0 221 -49 332q160 88 268 88q100 0 101 -96q0 -47 -2 -97.5t-2 -76.5q184 41 303.5 156.5t119.5 222.5q0 57 -43 93t-129 36q-135 0 -306 -74t-302 -204 t-131 -265q0 -23 2 -35q-113 0 -157 57.5t-44 157.5z" />
<glyph unicode="S" horiz-adv-x="1525" d="M-35 213q0 152 140.5 288t295.5 136q6 0 10.5 -5t6.5 -11.5t3 -13.5t1 -13v-4q-47 0 -80 -27.5t-33 -64.5q0 -39 43 -67t129 -28q135 0 290 45.5t264.5 120t109.5 148.5q0 100 -217 152.5t-713 52.5q-82 53 -133 144t-51 173q0 127 193.5 251t455.5 196.5t481 72.5 q334 0 334 -172q0 -88 -102 -221q-145 0 -277.5 -17.5t-225.5 -45t-173 -61.5t-130 -67.5t-85 -61.5t-51 -44l-15 -18q16 -2 88 -9.5t141.5 -14.5t169 -23.5t184.5 -38t174 -58.5t150.5 -82t101.5 -110.5t40 -143.5q0 -135 -62.5 -251.5t-160 -193.5t-219 -132t-238.5 -80 t-221 -25q-322 0 -470.5 91.5t-148.5 232.5z" />
<glyph unicode="T" horiz-adv-x="1030" d="M-41 1374q0 145 135 244.5t326.5 139.5t419.5 40q80 0 155.5 -4t178 -20.5t176 -43t126 -77.5t52.5 -121q0 -86 -62.5 -183.5t-175.5 -181.5q-178 63 -420 99q27 -23 27 -74q0 -109 -22.5 -371t-22.5 -387q0 -334 127 -434q-35 -10 -100.5 -31.5t-112.5 -33t-84 -11.5 q-72 0 -109.5 55.5t-37.5 192.5q0 80 17 316.5t17 361.5q0 231 -49 344q115 63 217 86q-78 6 -157 6q-332 0 -562 -119q-59 111 -59 207z" />
<glyph unicode="U" horiz-adv-x="1370" d="M45 930q0 180 11.5 315t40 257t87 187.5t142.5 65.5q109 0 264 -115q-14 -35 -37 -105.5t-59.5 -340.5t-36.5 -602q0 -403 98 -404q100 0 279 469q-14 244 -15 920q0 205 121 205q57 0 136 -45t128 -90l51 -45q-69 -364 -69 -667v-9q0 -381 94 -608.5t213 -274.5 q-63 -102 -152.5 -137t-212.5 -35q-203 0 -268 502q-254 -424 -452 -424q-117 0 -202 149.5t-123 366.5t-38 465z" />
<glyph unicode="V" horiz-adv-x="991" d="M-123 1540q68 88 252 88q115 0 206 -37t99 -94q37 -309 87 -529t81 -286l33 -66q18 158 77.5 364t144.5 406.5t203 339t232 138.5q178 0 334 -330q-123 -70 -223 -143.5t-179 -158.5t-137.5 -162t-107.5 -182.5t-82 -191.5t-65.5 -217t-54 -228t-54.5 -257 q-6 -33 -10 -51q-14 -14 -72 -15q-74 0 -159 19.5t-87 38.5q-141 559 -288.5 993t-229.5 561z" />
<glyph unicode="W" horiz-adv-x="1955" d="M20 911q0 276 88.5 457.5t262.5 181.5q139 0 315 -123q-104 -164 -160.5 -414.5t-56.5 -484.5q0 -170 30.5 -276.5t88.5 -106.5q96 0 231 299q-37 168 -37 402q0 119 10.5 239.5t18.5 182.5l10 61q33 129 133 129q63 0 146.5 -49t136.5 -98l51 -47q-68 -80 -117 -276.5 t-49 -385.5q0 -166 45 -269.5t142 -103.5q111 0 164 144.5t53 367.5q0 274 -70 535.5t-168 322.5q182 156 320 156q106 0 181 -94t108.5 -242.5t33.5 -337.5q0 -274 -64.5 -540.5t-195.5 -453.5t-293 -187q-330 0 -481 307q-203 -285 -393 -285q-141 0 -255 153.5 t-171.5 378t-57.5 457.5z" />
<glyph unicode="X" horiz-adv-x="1144" d="M-88 127q0 229 319 702q-90 254 -143 478.5t-53 332.5q0 55 49 87t137 32q129 0 297 -67q-2 -18 -2 -60q0 -154 41 -387q190 213 367.5 342t302.5 129q78 0 117.5 -74.5t39.5 -171.5q0 -113 -43 -151q-381 -139 -679 -488q55 -174 126.5 -328.5t163.5 -298t211 -251 t252 -158.5q-144 -192 -301 -192h-2q-186 0 -373.5 234.5t-353.5 606.5q-119 -201 -250 -489q-57 4 -89 9t-67.5 22.5t-51 51.5t-15.5 89z" />
<glyph unicode="Y" horiz-adv-x="1161" d="M-242 1536q6 12 19.5 30.5t60.5 66.5t101.5 85t143.5 68t187 31q154 0 225.5 -156t71.5 -410q0 -379 -123 -774q-10 -37 -10 -55q0 -51 51.5 -51t132 45t117.5 84q-4 940 -53 1016q154 45 281 45q167 -1 167 -101q0 -229 -106 -1513q-12 -156 -118.5 -274.5t-246 -173 t-280.5 -54.5q-154 0 -239 79t-85 195q0 109 77 213.5t220 165.5q20 -80 114.5 -203.5t166.5 -123.5q104 0 104 301v338q-82 -102 -228.5 -170t-266.5 -68q-145 0 -146 98q0 20 15 64q67 170 67 409v7q0 182 -40 340.5t-138 284.5t-242 161z" />
<glyph unicode="Z" horiz-adv-x="1304" d="M-72 256q0 106 111 241.5t247 241t284.5 221t193.5 168.5q-25 4 -47 5q-111 0 -311.5 -52.5t-272.5 -93.5q-74 141 -74 252q0 94 50.5 166t143.5 116t195.5 72.5t240.5 41t240.5 16.5t231.5 4q25 0 38 -9.5t25.5 -57.5t12.5 -138q12 -10 29.5 -28.5t46 -70t28.5 -94.5 q0 -76 -108 -131q-182 -94 -318.5 -183t-209 -153.5t-116.5 -125t-55.5 -95t-11.5 -67.5q0 -12 4 -29q150 43 287 43q199 0 329 -86t130 -262q0 -61 -19 -135q-112 22 -291 22h-16q-246 0 -473 -41t-346 -133q-104 68 -151.5 180.5t-47.5 194.5z" />
<glyph unicode="[" horiz-adv-x="561" d="M82 47v1399q0 186 162 325.5t317 139.5q70 0 112 -37t42 -111q0 -29 -15 -90q-207 -2 -271 -135t-64 -494q0 -82 1 -270t1 -260q0 -123 1 -186.5t6 -142.5t12 -113.5t25.5 -76.5t40 -56.5t60.5 -31t82 -19.5t108 -3q8 -35 9 -71q0 -94 -55.5 -141.5t-143.5 -47.5 q-154 0 -292 120t-138 302z" />
<glyph unicode="\" horiz-adv-x="630" d="M-121 1821q0 4 34 37.5t87 69.5t90 36q57 0 78 -78q16 -66 100 -411t170 -689t127 -497q127 -467 215 -539q-100 -96 -168 -96q-70 0 -124 92t-107 291q-25 92 -169 664.5t-181 709.5q-82 310 -152 410z" />
<glyph unicode="]" horiz-adv-x="684" d="M-106 -199q0 29 14 90q207 2 271.5 135.5t64.5 493.5q0 82 -1 270.5t-1 260.5q0 123 -1 186t-6.5 142t-12.5 114t-25.5 77t-40 56t-60.5 30.5t-82 19.5t-108 3q-8 35 -8 72q0 94 55 141t143 47q154 0 292 -119.5t138 -301.5v-1399q0 -186 -161.5 -325.5t-317.5 -139.5 q-70 0 -111.5 37t-41.5 110z" />
<glyph unicode="_" horiz-adv-x="1208" d="M39 -135q0 20 7 39.5t15 29.5l9 9q350 0 619 8t364 16l94 8q35 -47 35 -90q-1 -100 -228 -100h-802q-113 0 -113 80z" />
<glyph unicode="`" d="M387 1284q0 84 125 178q117 -143 223.5 -210.5t239.5 -69.5q31 -37 31 -68q0 -45 -84 -45q-225 0 -380 59.5t-155 155.5z" />
<glyph unicode="a" d="M-6 301q0 160 51 316.5t156.5 268t236.5 111.5q125 0 174 -170q57 14 99 15q86 0 86 -64q0 -102 -10.5 -235t-10.5 -176q0 -98 31 -181.5t115 -185.5q-125 -66 -240 -66q-74 0 -102.5 70t-38.5 211q-82 -168 -160 -223t-162 -55q-111 0 -168 102t-57 262zM303 260 q0 -86 31 -86q51 0 114.5 106.5t63.5 264.5q0 41 -6 86q-8 55 -29 114q-76 -70 -125 -221t-49 -264z" />
<glyph unicode="b" horiz-adv-x="927" d="M0 1559q160 88 268 88q100 0 101 -97q0 -88 -11.5 -334.5t-15.5 -361.5q115 80 215 80q150 0 241 -158t91 -360q0 -174 -74 -294t-215 -120q-135 0 -207 72q33 -119 88 -162q-70 -10 -155.5 -10t-137 12t-86 34.5t-49 79t-19.5 120t-5 184.5q0 117 11 390t11 404 q0 318 -51 433zM340 649q0 -289 27 -456q104 23 161.5 115.5t57.5 199.5q0 90 -41 153.5t-113 63.5q-43 0 -92 -25v-51z" />
<glyph unicode="c" horiz-adv-x="708" d="M-16 334q0 160 59 320.5t165.5 269t227.5 108.5q123 0 190.5 -60.5t67.5 -148.5q0 -72 -81 -177t-89 -171q-12 2 -31.5 7t-52 30t-32.5 57q-78 -2 -126.5 -85t-48.5 -181q0 -78 33 -129t96 -51q55 0 107.5 38.5t81.5 108.5q72 -6 110.5 -52t38.5 -97q0 -78 -98 -133.5 t-225 -55.5q-162 0 -277.5 98.5t-115.5 303.5z" />
<glyph unicode="d" horiz-adv-x="919" d="M-18 315q0 145 44 285.5t136 238t209 97.5q84 0 151 -64q6 131 6 258q0 307 -51 429q160 88 268 88q100 0 101 -97q0 -98 -26.5 -433t-26.5 -521q0 -442 129 -596q-125 -66 -240 -66q-74 0 -103.5 71t-37.5 208q-57 -117 -119 -181.5t-106 -79.5t-97 -15 q-117 0 -177 107.5t-60 270.5zM295 299q0 -125 39 -125q31 0 64.5 37t66.5 128t45 218q0 20 4 90t4 109q-104 -16 -163.5 -163t-59.5 -294z" />
<glyph unicode="e" horiz-adv-x="864" d="M-6 410q0 221 147.5 400t331.5 179q170 0 263 -94t93 -225q0 -137 -99 -238.5t-273 -101.5q-80 0 -162 20q0 -113 42 -185.5t128 -72.5q55 0 105.5 41t74.5 113q74 -8 113 -42t39 -83q0 -76 -109.5 -135.5t-251.5 -59.5q-184 0 -313 117t-129 367zM303 459 q123 14 181.5 79.5t58.5 139.5t-39 74q-74 0 -128 -86t-73 -207z" />
<glyph unicode="f" horiz-adv-x="548" d="M-66 557q0 23 13 47q96 4 143 8q-6 98 -13 209t-12.5 175.5t-5.5 80.5q0 160 209 199q82 51 168 51q121 0 184.5 -50t63.5 -122q0 -78 -67.5 -138.5t-176.5 -60.5q10 35 11 80q0 84 -41 135q-61 -152 -62 -530q64 10 119 37q14 0 42 -48t28 -89q0 -76 -105 -76h-82 q6 -166 24.5 -463t18.5 -381q0 -96 -100 -96q-49 0 -115.5 22.5t-109.5 42.5l-43 23q75 176 75 613v12q0 74 -4 217l-71 -4q-27 0 -59 31.5t-32 74.5z" />
<glyph unicode="g" horiz-adv-x="868" d="M-27 -297q0 88 166 162q12 -47 82 -101.5t139 -54.5q168 0 168 338q0 88 -2 139q-80 -152 -152.5 -200.5t-154.5 -48.5q-111 0 -168 102t-57 262t51 316.5t156.5 268t236.5 111.5q121 0 170 -159q73 22 114 22h3q72 0 72 -57q0 -510 -29 -860q-16 -190 -182 -303 t-355 -113q-113 0 -185.5 45t-72.5 131zM303 260q0 -86 31 -86q49 0 110.5 99.5t67.5 248.5q-14 164 -33 226q-78 -68 -127 -220.5t-49 -267.5z" />
<glyph unicode="h" horiz-adv-x="884" d="M-2 1561q160 88 268 88q100 0 101 -97q0 -72 -5.5 -182t-12.5 -264t-11 -256q63 61 140 90t136 29q123 0 170 -81t47 -224q0 -74 -14 -225.5t-14 -219.5q0 -168 67 -219q-94 -72 -192 -72q-174 0 -174 234q0 68 19.5 213t19.5 205q0 174 -129 174q-43 0 -80 -41 q-2 -63 -2 -187q0 -459 86 -555q-117 -18 -197 -18q-109 0 -155 48t-46 167q0 111 15.5 356.5t15.5 603.5q0 310 -53 433z" />
<glyph unicode="i" horiz-adv-x="466" d="M49 836q145 61 244 61q96 0 96 -115q0 -51 -29.5 -201.5t-29.5 -228.5q0 -205 121 -352q-125 -47 -301 -47q-94 0 -95 160q0 55 16.5 214.5t16.5 250.5q0 152 -39 258zM78 1130q0 76 47 136.5t117 60.5q78 0 121 -51t43 -123q0 -74 -44 -128t-120 -54q-80 0 -122 46 t-42 113z" />
<glyph unicode="j" horiz-adv-x="440" d="M-465 -297q0 88 166 162q12 -47 82 -101.5t139 -54.5q168 0 168 338q0 242 -20.5 499t-69.5 308q193 88 305 88q78 0 78 -55q0 -293 -53 -944q-16 -190 -182 -303t-355 -113q-113 0 -185.5 45t-72.5 131zM-8 1182q0 78 54 143.5t128 65.5q90 0 136 -46.5t46 -115.5 q0 -76 -51 -135.5t-131 -59.5q-92 0 -137 42t-45 106z" />
<glyph unicode="k" horiz-adv-x="892" d="M8 1561q160 88 268 88q100 -1 100 -97q0 -3 1 -6q-1 -98 -15 -347q-14 -257 -18 -406q41 102 129 162.5t178 60.5q86 0 142.5 -58.5t56.5 -171.5q0 -127 -106.5 -225t-272.5 -98h-33q68 -119 179.5 -183.5t232.5 -64.5q29 0 43 2q-2 -113 -79 -194.5t-157 -81.5 q-117 0 -196.5 127t-118.5 317q0 -354 57 -416q-117 -18 -190 -18q-102 0 -140 47t-38 170q0 111 15 356.5t15 603.5q0 310 -53 433zM379 608q2 -10 8 -28.5t6 -20.5q29 -4 37 -4q53 0 79 29.5t26 70.5q0 29 -14 48.5t-34 19.5q-49 0 -108 -115z" />
<glyph unicode="l" horiz-adv-x="436" d="M-4 1561q160 88 268 88q100 -1 100 -97q0 -3 1 -5q0 -101 -18 -457q-18 -366 -17 -564q0 -479 86 -575q-117 -20 -178 -21q-121 0 -167 84t-46 316q0 117 12 392t12 406q0 310 -53 433z" />
<glyph unicode="m" horiz-adv-x="1333" d="M10 887q160 88 269 88q100 0 100 -96q0 -6 -1 -20.5t-1 -24.5q116 120 244 120h2q143 0 178 -145q133 162 280 162q199 0 199 -346q0 -84 -13.5 -227.5t-13.5 -178.5q0 -168 68 -219q-94 -72 -193 -72q-174 0 -174 234q0 72 19.5 217t19.5 201q0 84 -29.5 127t-74.5 43 q-37 0 -76 -29q2 -16 2 -51l-24 -430q0 -184 71 -244q-129 -49 -207 -49q-80 0 -116.5 54t-36.5 167q0 68 18.5 210t18.5 202q0 76 -31 116.5t-78 40.5q-33 0 -63 -18q-25 -225 -25 -389q0 -287 88 -359q-117 -18 -197 -18q-109 0 -154.5 48t-45.5 167q0 25 15 153t15 222 q0 184 -53 344z" />
<glyph unicode="n" horiz-adv-x="892" d="M10 887q160 88 269 88q100 0 100 -96q0 -23 -2 -37q61 61 129.5 94t118.5 33q221 0 221 -307q0 -76 -16.5 -229.5t-16.5 -213.5q0 -168 68 -219q-94 -72 -193 -72q-174 0 -174 234q0 68 19.5 213t19.5 205q0 174 -129 174q-27 0 -55 -19q-27 -248 -27 -405 q0 -287 88 -359q-117 -18 -197 -18q-109 0 -154.5 48t-45.5 167q0 25 15 153t15 222q0 184 -53 344z" />
<glyph unicode="o" horiz-adv-x="888" d="M-10 412q0 201 84 366.5t196 165.5q14 0 56.5 -22.5t66.5 -49.5q55 84 109 84q135 0 214 -95t93 -245q33 10 82 35q6 -8 6 -22q0 -61 -86 -129q-12 -217 -130 -387t-296 -170q-104 0 -183 38.5t-124 106.5t-66.5 148.5t-21.5 175.5zM289 324q0 -193 104 -193q63 0 100 87 t48 218q-178 23 -207 172q-45 -154 -45 -284zM465 723q0 -88 78 -125q-10 178 -54 178q-24 0 -24 -53z" />
<glyph unicode="p" horiz-adv-x="851" d="M-31 911q190 61 246 62q61 0 82.5 -47t21.5 -168q72 121 138.5 160.5t142.5 39.5q117 0 177.5 -107.5t60.5 -270.5q0 -145 -44 -285.5t-136 -238t-209 -97.5q-86 0 -156 66q-2 -31 -2 -93q0 -211 51 -329q-160 -88 -268 -88q-100 0 -101 96q0 98 27 300t27 388 q0 61 4 172t4 160q0 203 -66 280zM297 139q109 16 168 163t59 296q0 123 -39 123q-27 0 -56.5 -31t-59 -90t-50 -164.5t-20.5 -238.5z" />
<glyph unicode="q" d="M-6 279q0 238 118.5 448.5t297.5 210.5q127 0 149 -113q53 156 363 156q25 0 24 -25q-74 -82 -109.5 -317.5t-35.5 -517.5v-68q16 12 29.5 25.5l19.5 19.5l6 8q76 -45 76 -120q0 -88 -123 -129q8 -150 37 -252q-160 -88 -268 -88q-101 0 -101 96q0 139 49 491 q-128 -167 -309 -167h-2q-109 0 -165 96t-56 246zM334 369q0 -195 51 -195q39 0 91 68.5t75 177.5l-2 336q0 16 4 41q-18 6 -33 6q-90 0 -138 -136.5t-48 -297.5z" />
<glyph unicode="r" horiz-adv-x="733" d="M-23 827q160 88 269 88q100 0 100 -96v-31q84 148 182 156q92 -2 152.5 -71.5t60.5 -159.5q0 -96 -74.5 -164t-226.5 -72q14 57 15 127q0 123 -62 125q-29 -2 -49 -20q-4 -80 -17.5 -242t-13.5 -240q0 -182 62 -254q-106 -20 -166 -20q-188 0 -189 188q0 39 8.5 164 t8.5 211q0 172 -60 311z" />
<glyph unicode="s" horiz-adv-x="690" d="M-35 131q0 90 62 178q67 -67 165 -67h3q92 0 92 67q0 27 -44 68t-96.5 83t-96.5 111.5t-44 145.5q0 133 120 210t269 77q115 0 194 -48.5t79 -134.5q0 -88 -89.5 -159.5t-238.5 -71.5q55 92 55 160q0 61 -63 61q-41 0 -79 -27.5t-38 -66.5q0 -43 23.5 -76t49 -49.5 t79 -43t77.5 -40.5q207 -125 207 -285q0 -121 -121.5 -207t-306.5 -86q-125 0 -191.5 56.5t-66.5 144.5z" />
<glyph unicode="t" horiz-adv-x="544" d="M-76 926q0 23 13 47q184 8 219 12v27q0 303 -66 385q93 30 162 30h4q178 0 178 -198q0 -20 -18 -205q24 7 65 23q16 0 74.5 -57.5t58.5 -98.5q0 -57 -125 -57h-88q-8 -123 -8 -289q0 -365 76 -543q-160 -88 -268 -88q-100 0 -101 96q0 104 22.5 399.5t29.5 415.5l-138 -6 q-27 0 -58.5 32t-31.5 75z" />
<glyph unicode="u" horiz-adv-x="890" d="M14 426q0 164 33 377q0 2 3 7t14.5 17.5t29 21.5t52 17t79.5 8q63 0 144 -14q-49 -209 -50 -371q0 -115 25 -181t62 -66q41 0 86 84q-8 57 -9 145q0 94 10.5 198.5t20.5 161.5l10 56q6 47 138 47q145 0 184 -55q-25 -29 -48.5 -182.5t-23.5 -305.5q0 -334 113 -334 q0 -4 -1 -11t-8.5 -23.5t-18.5 -29.5t-35.5 -24.5t-57.5 -11.5q-76 0 -143.5 58.5t-104.5 179.5q-39 -133 -97.5 -202t-123.5 -69q-283 0 -283 502z" />
<glyph unicode="v" horiz-adv-x="751" d="M0 442q0 197 43 351q18 66 104 118t158 52q37 0 53 -15q-75 -208 -75 -377q0 -137 44 -212.5t101 -75.5q43 0 79 44t48 126q-55 37 -87 111.5t-32 158.5q0 102 48 171t143 69q75 0 75 -198v-5q0 -20 -4 -63.5t-4 -65.5q0 -121 92 -152q6 0 7 -4q0 -16 -53.5 -33.5 t-84.5 -17.5q-55 -211 -153.5 -354.5t-227.5 -143.5q-98 0 -162.5 79t-88 188.5t-23.5 248.5z" />
<glyph unicode="w" horiz-adv-x="1173" d="M0 489q0 256 104 410q57 86 187 86q27 0 55.5 -4t42.5 -8l14 -4q-102 -270 -102 -473q0 -98 24.5 -155.5t61.5 -57.5q43 0 82 67q-4 70 -4 111q0 172 53 364q14 51 66.5 78t115.5 27q72 0 107 -27q-63 -182 -64 -330q0 -127 42 -203.5t96 -76.5q37 0 65.5 40t38.5 113 q-59 35 -93 113t-34 164q0 102 48 171t143 69q75 0 75 -194v-5q0 -64 -8 -121q0 -133 90 -164q6 -2 6 -4q0 -16 -53 -33.5t-84 -17.5q-57 -205 -155.5 -342t-225.5 -137q-66 0 -120 68.5t-82 189.5q-96 -225 -230 -226q-106 0 -184 146.5t-78 365.5z" />
<glyph unicode="x" horiz-adv-x="821" d="M-10 8q0 111 141 338q-123 256 -123 445q0 74 26.5 114.5t100.5 40.5q78 0 207 -51q-2 -16 -2 -51q0 -86 16 -197q246 279 394 279q45 0 68.5 -43t23.5 -99q0 -63 -25 -86q-227 -84 -405 -295q76 -243 181 -243h1q51 0 100 61q66 -33 66 -100q0 -61 -59.5 -110.5 t-161.5 -49.5q-154 0 -297 197q-66 -121 -123 -248q-43 2 -66.5 7t-43 27.5t-19.5 63.5z" />
<glyph unicode="y" horiz-adv-x="882" d="M-27 -297q0 88 166 162q12 -47 82 -101.5t139 -54.5q168 0 168 338v172q-41 -131 -98 -199.5t-123 -68.5q-282 0 -282 498q0 168 32 380q0 2 3 7.5t14.5 17.5t29 21.5t52 17.5t80.5 8q63 0 143 -14q-49 -209 -49 -371q0 -115 23.5 -181.5t62.5 -66.5q57 0 112 142 q-4 377 -39 436q133 45 236 45q113 0 113 -72q0 -82 -10.5 -213t-30 -339t-29.5 -324q-16 -190 -182 -303t-355 -113q-113 0 -185.5 45t-72.5 131z" />
<glyph unicode="z" horiz-adv-x="845" d="M6 756q0 57 50 101t132 66.5t170 34t177 11.5q172 0 249.5 -38t77.5 -167q0 -102 -55 -129q-10 0 -21 2q-102 -41 -182 -91t-119 -93t-63.5 -80t-28.5 -58l-6 -22h47q223 0 306 -26.5t83 -82.5q0 -27 -23.5 -90t-29.5 -86q-102 10 -186 10q-221 0 -502 -88 q-74 72 -74 187q0 76 42 152.5t173 181t346 198.5q-326 0 -460 -78q-102 104 -103 185z" />
<glyph unicode="{" horiz-adv-x="706" d="M63 776q0 31 16.5 64.5t33.5 52.5l16 18q78 2 109.5 113t37 267.5t16.5 312t72.5 265t182.5 109.5q125 0 319 -116q-119 -63 -198.5 -173t-117.5 -232t-61.5 -238.5t-53 -226t-70.5 -167.5q53 -47 87.5 -154.5t58.5 -232.5t59.5 -253t117.5 -245.5t209 -185.5 q-184 -117 -301 -116q-84 0 -138.5 58t-78 152.5t-35.5 208t-19.5 228t-20.5 209t-49 153t-95 58.5q-96 0 -97 71z" />
<glyph unicode="|" horiz-adv-x="411" d="M14 1901q127 88 213 88q82 0 82 -96.5t-14 -772.5t-14 -874q0 -479 69 -576q-96 -53 -157 -53q-84 0 -120 102.5t-36 329.5q0 117 9 702.5t9 716.5q0 316 -41 433z" />
<glyph unicode="}" horiz-adv-x="706" d="M-172 1860q184 117 301 116q84 0 138.5 -58t78 -152.5t35.5 -209t19.5 -228.5t20.5 -208t49 -152.5t95 -58.5q96 0 97 -71q0 -31 -16.5 -65t-33.5 -52l-16 -19q-78 -2 -109.5 -112.5t-37 -267t-16.5 -312t-72.5 -265.5t-182.5 -110q-125 0 -319 117q119 63 198.5 173 t116.5 230.5t60.5 238.5t53 227.5t70.5 166.5q-53 47 -87.5 155t-58.5 231.5t-59.5 252.5t-117.5 247t-207 186z" />
<glyph unicode="&#xa1;" horiz-adv-x="667" d="M129 -694q41 47 64 217q57 401 57 633q0 180 -33 260q90 57 176 57q82 0 119 -72q64 -702 66 -1007q0 -154 -193 -154q-129 0 -256 66zM154 823q0 100 55 177t147 77q96 0 143.5 -60.5t47.5 -150.5q0 -104 -56.5 -189t-142.5 -85q-92 0 -143 67.5t-51 163.5z" />
<glyph unicode="&#xa2;" horiz-adv-x="925" d="M106 901q0 162 72 317.5t189 233.5q-6 127 -35 207q129 78 219 78q39 0 57 -17q12 -10 13 -43q0 -16 -3.5 -41.5t-8.5 -62.5t-9 -64q104 -16 162.5 -87.5t58.5 -159.5q0 -66 -35 -116.5t-98 -66.5q-80 80 -158 80q-82 0 -135 -81t-53 -181q0 -86 44 -143.5t130 -57.5 q121 0 172 121q72 -6 111 -52t39 -97q0 -88 -71 -143.5t-177 -67.5q29 -119 143 -258q0 -10 -28.5 -23.5t-79 -24t-101.5 -10.5q-96 0 -130 42t-34 171q0 70 9 133q-117 47 -190 150.5t-73 263.5z" />
<glyph unicode="&#xa3;" horiz-adv-x="1345" d="M-61 45q0 12 3 33.5t19 77t42 96.5t79 75.5t123 34.5q63 0 135 -10q-16 29 -16 54q0 100 4 155l-86 2q-29 0 -63 37t-34 82q0 27 11 45q59 0 115.5 -1t68.5 -1q0 20 4 61l-102 -4q-27 0 -58.5 32t-31.5 75q0 23 12 47q160 6 190 6q8 160 8 236q0 426 -157 497 q184 51 330 51q174 0 174 -96q0 -72 -25 -316.5t-33 -357.5q195 16 271 68q14 0 53 -52t39 -95q0 -80 -144 -80q-150 0 -229 -2v-70q334 10 414 78q4 0 10 -11.5t10 -32t4 -40.5q0 -66 -47 -113t-160 -47h-229q6 -174 41 -289q88 -37 215 -37q160 0 348 91 q180 -135 180 -254q0 -88 -100 -140.5t-280 -52.5q-127 0 -237 30t-177.5 65.5t-181 65.5t-248.5 30q-102 0 -264 -23z" />
<glyph unicode="&#xa5;" horiz-adv-x="1243" d="M2 1597q68 88 234 89q102 0 185 -37t91 -95q20 -152 59 -323.5t68 -267.5l27 -97q16 240 71.5 465t132.5 324q51 63 138 63q90 0 180 -57t98 -107q-133 -104 -244.5 -291.5t-164.5 -426.5q88 16 139 49q14 0 53 -52.5t39 -95.5q0 -80 -143 -80h-117q-2 -12 -3 -34.5 t-1 -30.5q235 15 305 72q4 0 10 -11.5t10.5 -32t4.5 -40.5q0 -66 -47.5 -113t-159.5 -47h-123q10 -221 78 -453q-63 -27 -144 -26q-66 0 -128 20.5t-95 44t-35 37.5q12 100 12 197q0 84 -10 182l-186 2q-29 0 -62.5 37t-33.5 82q0 27 10 45q68 0 144.5 -1t99.5 -1 q-8 41 -15 61l-143 -4q-27 0 -58.5 32t-31.5 75q0 23 12 47q84 0 176 6q-47 137 -117.5 280.5t-121 223t-121 183t-72.5 107.5z" />
<glyph unicode="&#xa7;" horiz-adv-x="948" d="M94 305q0 88 62 178q68 -68 168 -67q92 0 92 67q0 27 -44 68t-96.5 83t-96.5 111.5t-44 145.5q0 102 78 176q-78 88 -78 172q0 133 120 210t269 77q115 0 194 -48t79 -135q0 -88 -89.5 -159.5t-238.5 -71.5q55 92 55 160q0 61 -63 61q-41 0 -79 -27.5t-38 -66.5 q0 -43 23.5 -76t49 -49t79 -43t77.5 -41q207 -125 207 -285q0 -90 -75 -170q76 -88 75 -178q0 -121 -121.5 -207t-306.5 -86q-125 0 -191.5 56.5t-66.5 144.5zM344 891q0 -37 12.5 -64.5t45 -50t53 -33t67.5 -32.5q37 16 37 57q0 10 -10 24.5t-31.5 32t-41 32.5t-55.5 41 t-59 42q-18 -22 -18 -49z" />
<glyph unicode="&#xa8;" horiz-adv-x="466" d="M-127 1130q0 76 47 136.5t117 60.5q78 0 121 -51t43 -123q0 -74 -44 -128t-120 -54q-80 0 -122 46t-42 113zM289 1130q0 76 47 136.5t117 60.5q78 0 121 -51t43 -123q0 -74 -44 -128t-120 -54q-80 0 -122 46t-42 113z" />
<glyph unicode="&#xa9;" horiz-adv-x="1386" d="M154 414q0 270 191 482t439 212q201 0 331 -144.5t130 -361.5q0 -276 -192.5 -485t-438.5 -209q-201 0 -330.5 144.5t-129.5 361.5zM262 430q0 -172 104.5 -286.5t264.5 -114.5q197 0 352.5 165.5t155.5 387.5q0 174 -105.5 289.5t-265.5 115.5q-199 0 -352.5 -169 t-153.5 -388zM424 412q0 195 131 379q84 127 141 127q55 0 120 -54.5t65 -118.5q0 -14 -36 -58t-36 -97q0 -29 6 -43q-53 2 -79.5 23.5t-30.5 74.5q-37 0 -90.5 -102.5t-53.5 -188.5q0 -109 103 -108q49 0 100 50t61 114q98 0 99 -93q0 -76 -68 -151.5t-168 -75.5 q-119 0 -191.5 91t-72.5 231z" />
<glyph unicode="&#xaa;" horiz-adv-x="759" d="M14 567q0 162 176 162q57 0 152.5 -7t118.5 -7q139 -1 196 65q35 -92 35 -143q0 -63 -34.5 -94t-90.5 -31q-35 0 -145.5 30.5t-175.5 30.5q-123 0 -203 -98q-29 33 -29 92zM29 1032q0 178 87 332t224 154q86 0 121 -119q37 10 67 10q61 0 62 -45q0 -70 -7.5 -163 t-7.5 -124q0 -131 103 -258q-88 -45 -168 -45q-51 0 -71.5 49t-26.5 148q-59 -119 -112.5 -157t-113.5 -38q-78 0 -117.5 73t-39.5 183zM246 1001q0 -59 20 -59q37 0 81 74.5t44 185.5q0 25 -2 37q-6 49 -22 102q-53 -49 -87 -154.5t-34 -185.5z" />
<glyph unicode="&#xab;" horiz-adv-x="1447" d="M-47 459l2 33q461 88 702 509q176 -80 177 -176q0 -82 -109 -171t-250 -146.5t-250 -69.5q111 -12 250 -67.5t249 -142.5t110 -169q0 -96 -177 -176q-74 129 -159.5 222.5t-173.5 143.5t-159 74.5t-153 41.5q-59 0 -59 94zM492 444q0 16 14 45q80 14 159.5 45t178 87.5 t192.5 153.5t168 226q176 -80 176 -176q0 -82 -108.5 -171t-249.5 -146.5t-250 -69.5q111 -12 250 -67.5t248.5 -142.5t109.5 -169q0 -96 -176 -176q-244 428 -676 510q-37 25 -36 51z" />
<glyph unicode="&#xad;" horiz-adv-x="1079" d="M33 397q0 90 51 154.5t147 64.5q92 0 279.5 -52t263.5 -52q143 0 197 127q80 -61 80 -190q0 -90 -51.5 -155t-147.5 -65q-57 0 -236.5 61.5t-271.5 61.5q-160 0 -231 -145q-80 61 -80 190z" />
<glyph unicode="&#xae;" horiz-adv-x="1386" d="M154 414q0 270 191 482t439 212q201 0 331 -144.5t130 -361.5q0 -276 -192.5 -485t-438.5 -209q-201 0 -330.5 144.5t-129.5 361.5zM262 430q0 -172 104.5 -286.5t264.5 -114.5q123 0 237 71q-29 -4 -39 -4q-68 0 -67 80q0 14 2 41t2 37q0 178 -92 178q-20 0 -35 17 q-6 -66 -6 -121q0 -145 61 -189q-106 -33 -155 -33q-37 0 -37 91q0 31 4 108.5t4 118.5q0 96 -18 135q66 35 110 35q39 0 39 -37v-72q76 16 124 64.5t48 91.5q0 51 -68 51q-92 0 -197.5 -69.5t-105.5 -153.5v-12q-82 0 -82 88q0 111 159 227.5t300 116.5q84 0 137.5 -42 t53.5 -104q0 -78 -76 -158.5t-199 -121.5q51 -8 92 -44t60.5 -72t44 -94t35.5 -77q172 172 172 406q0 174 -105.5 289.5t-265.5 115.5q-199 0 -352.5 -169t-153.5 -388z" />
<glyph unicode="&#xaf;" d="M74 1165q2 135 282 135q72 0 208 -10t184 -10q28 0 65 4q25 -35 25 -78q0 -53 -46.5 -87t-111.5 -34q-49 0 -168 12.5t-193 12.5q-106 0 -217 -23q-29 12 -28 78z" />
<glyph unicode="&#xb0;" d="M219 1188q0 117 85 211t220 94q100 0 154.5 -66.5t54.5 -162.5q0 -117 -72.5 -206t-197.5 -89q-119 0 -181.5 63.5t-62.5 155.5zM393 1225q0 -57 23.5 -97.5t68.5 -40.5q39 0 59.5 32t20.5 79q0 63 -29.5 117.5t-72.5 54.5q-29 0 -49.5 -45t-20.5 -100z" />
<glyph unicode="&#xb4;" d="M219 1114q0 14 7 30.5t16 26.5l8 11q113 0 233.5 74.5t229.5 205.5q147 -68 147 -149q0 -94 -170 -169t-387 -75q-84 0 -84 45z" />
<glyph unicode="&#xb6;" horiz-adv-x="1024" d="M-41 1016q0 98 52 200.5t146.5 190.5t243 144.5t320.5 56.5q168 0 305 -25q20 -6 25 -22l2 -5v-4q0 -6 -4 -14q-92 -115 -158 -417t-66 -629q0 -485 148 -754q-127 -78 -221 -78q-63 0 -84 61.5t-21 225.5q0 840 125 1452q-4 14 -37 14t-53 -8q-6 -10 -15.5 -31.5 t-34 -108.5t-44 -200t-34.5 -315.5t-15 -444.5q0 -446 75 -624q-160 -88 -268 -89q-100 0 -100 97q0 76 22.5 441.5t22.5 578.5q-2 8 -6 12t-6 4l-5 2q-156 8 -235.5 88t-79.5 201z" />
<glyph unicode="&#xb7;" horiz-adv-x="466" d="M78 518q0 76 47 136.5t117 60.5q78 0 121 -51t43 -123q0 -74 -44 -128t-120 -54q-80 0 -122 46t-42 113z" />
<glyph unicode="&#xb8;" horiz-adv-x="587" d="M74 -410q170 92 170 166q0 29 -36 82t-36 86q0 90 207 213h170q-123 -14 -183.5 -73.5t-60.5 -120.5q0 -49 60.5 -168t60.5 -176q0 -68 -43 -103t-109 -35q-72 0 -132 37t-68 92z" />
<glyph unicode="&#xba;" horiz-adv-x="702" d="M-2 567q0 162 176 162q57 0 152.5 -7t117.5 -7q140 -1 197 65q35 -92 35 -143q0 -63 -35 -94t-90 -31q-33 0 -144.5 30.5t-177.5 30.5q-123 0 -202 -98q-29 33 -29 92zM55 1095.5q0 141.5 58.5 257t138.5 115.5q10 0 38.5 -16t47.5 -35q39 59 76 60q96 0 149 -65.5 t66 -172.5q33 12 57 25q-8 -49 -55 -95q-6 -156 -89 -279.5t-210 -123.5q-141 0 -209 94t-68 235.5zM264 1034q0 -135 74 -135q88 0 104 213q-125 16 -147 121q-31 -102 -31 -199zM389 1313q0 -59 53 -88q-5 125 -36 125q-16 0 -17 -37z" />
<glyph unicode="&#xbb;" horiz-adv-x="1519" d="M33 59q0 82 109.5 169t248.5 142.5t250 67.5q-109 12 -250 69.5t-249.5 146.5t-108.5 171q0 96 176 176q74 -129 168 -226t192.5 -153.5t178 -87t159.5 -45.5q14 -29 15 -45q0 -27 -37 -51q-432 -82 -676 -510q-176 80 -176 176zM580 59q0 82 109.5 169t248.5 142.5 t250 67.5q-109 12 -250 69.5t-249.5 146.5t-108.5 171q0 96 176 176q242 -422 702 -509q2 -14 2 -33q0 -94 -59 -94q-82 -16 -152.5 -41t-159 -75t-174.5 -143.5t-159 -222.5q-176 80 -176 176z" />
<glyph unicode="&#xbf;" horiz-adv-x="1013" d="M-258 -231q0 68 102 153q16 12 132 63.5t233 106.5t215 139t98 164q0 39 -20 74q59 23 123 23q96 0 159.5 -48.5t63.5 -126.5q0 -133 -202 -285.5t-636 -281.5q72 -41 187 -41q158 0 351 76t365 221q174 -160 174 -301q0 -102 -87 -189t-220 -140.5t-285.5 -84 t-291.5 -30.5q-182 0 -295 82t-123 299q-43 76 -43 127zM487 819q0 100 54.5 177t146.5 77q96 0 144.5 -60.5t48.5 -150.5q0 -104 -57.5 -189t-143.5 -85q-92 0 -142.5 67.5t-50.5 163.5z" />
<glyph unicode="&#xc0;" horiz-adv-x="1482" d="M-172 543q-1 41 22 84q166 8 254 14q72 256 182.5 515t227.5 434t191 175q31 0 70.5 -5t91 -17t89 -40t43.5 -65q27 -104 79 -340.5t91 -389t96.5 -339t127 -313.5t149.5 -193q-117 -133 -223 -133q-193 0 -352 424q-240 0 -572 17q-82 -258 -110 -410 q-129 10 -194.5 69.5t-65.5 151.5q0 80 20 207l-39 4q-57 0 -117.5 40t-60.5 110zM416 2029q0 84 125 178q117 -143 223.5 -210.5t239.5 -69.5q31 -37 31 -68q0 -45 -84 -45q-225 0 -380 59.5t-155 155.5zM500 674q215 27 350 69q-56 217 -109 508h-12q-115 -264 -229 -577z " />
<glyph unicode="&#xc1;" horiz-adv-x="1482" d="M-172 543q-1 41 22 84q166 8 254 14q72 256 182.5 515t227.5 434t191 175q31 0 70.5 -5t91 -17t89 -40t43.5 -65q27 -104 79 -340.5t91 -389t96.5 -339t127 -313.5t149.5 -193q-117 -133 -223 -133q-193 0 -352 424q-240 0 -572 17q-82 -258 -110 -410 q-129 10 -194.5 69.5t-65.5 151.5q0 80 20 207l-39 4q-57 0 -117.5 40t-60.5 110zM446 1866q0 14 8.5 30.5t16.5 26.5l6 10q113 0 233.5 75t229.5 206q147 -68 147 -150q0 -94 -169.5 -168.5t-387.5 -74.5q-84 0 -84 45zM500 674q215 27 350 69q-56 217 -109 508h-12 q-115 -264 -229 -577z" />
<glyph unicode="&#xc2;" horiz-adv-x="1482" d="M-172 543q-1 41 22 84q166 8 254 14q72 256 182.5 515t227.5 434t191 175q31 0 70.5 -5t91 -17t89 -40t43.5 -65q27 -104 79 -340.5t91 -389t96.5 -339t127 -313.5t149.5 -193q-117 -133 -223 -133q-193 0 -352 424q-240 0 -572 17q-82 -258 -110 -410 q-129 10 -194.5 69.5t-65.5 151.5q0 80 20 207l-39 4q-57 0 -117.5 40t-60.5 110zM369 1837q0 16 6 35.5t15 30.5l6 10q100 37 145 84t90 145q111 94 187 94q55 0 84 -53q10 -16 30.5 -55t28.5 -52.5t25.5 -40t30 -36.5t32.5 -23.5t43 -17.5t51 -4q6 -29 6 -62 q0 -121 -108 -120q-27 0 -48.5 3t-46 14t-37 16t-39 27.5t-32.5 27t-39 36t-37 35.5q-6 -6 -47 -43t-56.5 -47t-50 -32.5t-66.5 -29.5t-66 -7q-106 0 -107 65zM500 674q215 27 350 69q-56 217 -109 508h-12q-115 -264 -229 -577z" />
<glyph unicode="&#xc3;" horiz-adv-x="1482" d="M-172 543q-1 41 22 84q166 8 254 14q72 256 182.5 515t227.5 434t191 175q31 0 70.5 -5t91 -17t89 -40t43.5 -65q27 -104 79 -340.5t91 -389t96.5 -339t127 -313.5t149.5 -193q-117 -133 -223 -133q-193 0 -352 424q-240 0 -572 17q-82 -258 -110 -410 q-129 10 -194.5 69.5t-65.5 151.5q0 80 20 207l-39 4q-57 0 -117.5 40t-60.5 110zM373 1896q0 178 194 179q66 0 171.5 -7.5t129.5 -7.5q156 0 217 72q39 -96 39 -160q0 -70 -37.5 -103.5t-99.5 -33.5q-39 0 -163 34t-195 34q-139 0 -226 -109q-31 37 -30 102zM500 674 q215 27 350 69q-56 217 -109 508h-12q-115 -264 -229 -577z" />
<glyph unicode="&#xc4;" horiz-adv-x="1482" d="M-172 543q-1 41 22 84q166 8 254 14q72 256 182.5 515t227.5 434t191 175q31 0 70.5 -5t91 -17t89 -40t43.5 -65q27 -104 79 -340.5t91 -389t96.5 -339t127 -313.5t149.5 -193q-117 -133 -223 -133q-193 0 -352 424q-240 0 -572 17q-82 -258 -110 -410 q-129 10 -194.5 69.5t-65.5 151.5q0 80 20 207l-39 4q-57 0 -117.5 40t-60.5 110zM362 1980q0 76 47.5 136.5t116.5 60.5q78 0 121 -51t43 -123q0 -74 -44 -128t-120 -54q-80 0 -122 46t-42 113zM500 674q215 27 350 69q-56 217 -109 508h-12q-115 -264 -229 -577zM778 1980 q0 76 47 136.5t117 60.5q78 0 121 -51t43 -123q0 -74 -44 -128t-120 -54q-80 0 -122 46t-42 113z" />
<glyph unicode="&#xc5;" horiz-adv-x="1482" d="M-172 543q-1 41 22 84q166 8 254 14q72 256 182.5 515t227.5 434t191 175q31 0 70.5 -5t91 -17t89 -40t43.5 -65q27 -104 79 -340.5t91 -389t96.5 -339t127 -313.5t149.5 -193q-117 -133 -223 -133q-193 0 -352 424q-240 0 -572 17q-82 -258 -110 -410 q-129 10 -194.5 69.5t-65.5 151.5q0 80 20 207l-39 4q-57 0 -117.5 40t-60.5 110zM500 674q215 27 350 69q-56 217 -109 508h-12q-115 -264 -229 -577zM584 1982q0 88 70.5 160t183.5 72q84 0 129 -50.5t45 -124.5q0 -88 -60.5 -155.5t-164.5 -67.5q-100 0 -151.5 47 t-51.5 119zM730 2011q0 -104 75 -105q66 0 66 84q0 49 -23.5 90t-60.5 41q-25 0 -41 -33.5t-16 -76.5z" />
<glyph unicode="&#xc6;" horiz-adv-x="2164" d="M-172 543q0 41 22 84q94 4 256 20q72 256 182.5 514t226.5 431t190 173q37 0 77.5 -5t94 -20.5t90.5 -50t43 -85.5q127 82 284.5 129t302.5 47q186 0 304 -84t118 -256q0 -104 -54 -174t-153 -70q4 8 5 23q0 43 -64.5 68.5t-161.5 25.5q-178 0 -325.5 -79t-147.5 -226 q0 -82 127 -82q152 0 451 108q18 6 30 6q37 0 37 -41q0 -14 -4 -30.5t-8 -26.5l-4 -10q-283 -102 -514.5 -240.5t-231.5 -216.5q0 -59 160 -59q90 0 183.5 19.5t199 63.5t203.5 132t168 211q221 -59 221 -242q0 -106 -81 -228t-216 -226.5t-333.5 -173t-411.5 -68.5 q-205 0 -329 112.5t-124 270.5q0 162 129 303q-150 -43 -332 -90q-119 -344 -153 -539q-129 10 -194.5 69.5t-65.5 151.5t22 221l-41 -10q-57 0 -117.5 40t-60.5 110zM514 715q236 53 447 129q-102 72 -154.5 179t-52.5 226l-25 2q-115 -262 -215 -536z" />
<glyph unicode="&#xc7;" horiz-adv-x="1239" d="M2 662q0 475 317 923q217 307 349 307q82 0 186 -56t183 -155.5t79 -203.5q0 -33 -27.5 -72t-59.5 -73t-59.5 -98.5t-27.5 -141.5q0 -55 10 -105q-127 6 -191.5 58.5t-72.5 183.5q-59 0 -143 -115t-147.5 -286t-63.5 -308q0 -270 252 -270q117 0 242.5 126t150.5 275 q117 0 178.5 -57t61.5 -162q0 -109 -62.5 -228.5t-187.5 -214.5t-277 -110q6 -14 57.5 -120.5t51.5 -159.5q0 -68 -43 -103t-109 -35q-72 0 -132 37t-68 92q170 96 169 166q0 27 -28.5 70t-34.5 57q-254 37 -403.5 250t-149.5 529z" />
<glyph unicode="&#xc8;" horiz-adv-x="1470" d="M-53 287q0 141 103.5 273t309.5 216v15q-145 66 -223 189.5t-78 260.5q0 141 134.5 268t329 199t381 72t304 -84t117.5 -256q0 -104 -54 -174t-153 -70q4 8 4 23q0 43 -64.5 68.5t-160.5 25.5q-178 0 -325.5 -79t-147.5 -226q0 -82 127 -82q152 0 450 108q18 6 31 6 q37 0 37 -41q0 -14 -4 -30.5t-8 -26.5l-4 -10q-283 -102 -514.5 -240.5t-231.5 -216.5q0 -59 160 -59q90 0 183 19.5t198.5 63.5t204 132t168.5 211q221 -59 221 -242q0 -106 -81 -228t-216 -226.5t-334 -173t-412 -68.5q-205 0 -328.5 112.5t-123.5 270.5zM328 2040 q0 84 125 178q117 -143 223.5 -210.5t239.5 -69.5q31 -37 31 -68q0 -45 -84 -45q-225 0 -380 59.5t-155 155.5z" />
<glyph unicode="&#xc9;" horiz-adv-x="1470" d="M-53 287q0 141 103.5 273t309.5 216v15q-145 66 -223 189.5t-78 260.5q0 141 134.5 268t329 199t381 72t304 -84t117.5 -256q0 -104 -54 -174t-153 -70q4 8 4 23q0 43 -64.5 68.5t-160.5 25.5q-178 0 -325.5 -79t-147.5 -226q0 -82 127 -82q152 0 450 108q18 6 31 6 q37 0 37 -41q0 -14 -4 -30.5t-8 -26.5l-4 -10q-283 -102 -514.5 -240.5t-231.5 -216.5q0 -59 160 -59q90 0 183 19.5t198.5 63.5t204 132t168.5 211q221 -59 221 -242q0 -106 -81 -228t-216 -226.5t-334 -173t-412 -68.5q-205 0 -328.5 112.5t-123.5 270.5zM317 1833 q0 14 7 30.5t16 26.5l8 11q113 0 233.5 74.5t229.5 205.5q147 -68 147 -149q0 -94 -170 -169t-387 -75q-84 0 -84 45z" />
<glyph unicode="&#xca;" horiz-adv-x="1470" d="M-53 287q0 141 103.5 273t309.5 216v15q-145 66 -223 189.5t-78 260.5q0 141 134.5 268t329 199t381 72t304 -84t117.5 -256q0 -104 -54 -174t-153 -70q4 8 4 23q0 43 -64.5 68.5t-160.5 25.5q-178 0 -325.5 -79t-147.5 -226q0 -82 127 -82q152 0 450 108q18 6 31 6 q37 0 37 -41q0 -14 -4 -30.5t-8 -26.5l-4 -10q-283 -102 -514.5 -240.5t-231.5 -216.5q0 -59 160 -59q90 0 183 19.5t198.5 63.5t204 132t168.5 211q221 -59 221 -242q0 -106 -81 -228t-216 -226.5t-334 -173t-412 -68.5q-205 0 -328.5 112.5t-123.5 270.5zM334 1878 q0 16 7 35.5t13 30.5l6 10q100 37 145.5 84t90.5 145q111 94 186 94q55 0 84 -53q10 -16 31 -55t29 -52.5t25.5 -40t29.5 -36.5t32.5 -23.5t43 -17.5t51.5 -4q6 -29 6 -62q0 -121 -108 -121q-27 0 -48.5 3.5t-46 14.5t-37 16t-39 27.5t-32.5 27t-39 36t-37 35.5 q-6 -6 -47 -43t-56.5 -47t-50 -32.5t-66.5 -30t-67 -7.5q-106 0 -106 66z" />
<glyph unicode="&#xcb;" horiz-adv-x="1470" d="M-53 287q0 141 103.5 273t309.5 216v15q-145 66 -223 189.5t-78 260.5q0 141 134.5 268t329 199t381 72t304 -84t117.5 -256q0 -104 -54 -174t-153 -70q4 8 4 23q0 43 -64.5 68.5t-160.5 25.5q-178 0 -325.5 -79t-147.5 -226q0 -82 127 -82q152 0 450 108q18 6 31 6 q37 0 37 -41q0 -14 -4 -30.5t-8 -26.5l-4 -10q-283 -102 -514.5 -240.5t-231.5 -216.5q0 -59 160 -59q90 0 183 19.5t198.5 63.5t204 132t168.5 211q221 -59 221 -242q0 -106 -81 -228t-216 -226.5t-334 -173t-412 -68.5q-205 0 -328.5 112.5t-123.5 270.5zM348 1987 q0 76 47 136t117 60q78 0 121 -51t43 -123q0 -74 -44 -128t-120 -54q-80 0 -122 46t-42 114zM764 1987q0 76 47 136t117 60q78 0 121 -51t43 -123q0 -74 -44 -128t-120 -54q-80 0 -122 46t-42 114z" />
<glyph unicode="&#xcc;" horiz-adv-x="538" d="M-123 1993q0 84 125 178q117 -143 223.5 -210.5t239.5 -69.5q31 -37 31 -68q0 -45 -84 -45q-225 0 -380 59.5t-155 155.5zM-25 1686q0 25 25 26h166q127 0 198.5 -31.5t71.5 -119.5q-39 -211 -39 -484q0 -238 35 -600t35 -438q0 -96 -117 -96q-57 0 -135 21.5t-127 43.5 l-49 23q66 150 65 518q0 395 -65 919q-18 164 -64 218z" />
<glyph unicode="&#xcd;" horiz-adv-x="538" d="M-105 1839q0 14 7 30.5t16 26.5l8 11q113 0 233.5 74.5t229.5 205.5q147 -68 147 -149q0 -94 -170 -169t-387 -75q-84 0 -84 45zM-25 1686q0 25 25 26h166q127 0 198.5 -31.5t71.5 -119.5q-39 -211 -39 -484q0 -238 35 -600t35 -438q0 -96 -117 -96q-57 0 -135 21.5 t-127 43.5l-49 23q66 150 65 518q0 395 -65 919q-18 164 -64 218z" />
<glyph unicode="&#xce;" horiz-adv-x="538" d="M-180 1845q0 16 6 35.5t15 30.5l6 10q100 37 145 84t90 145q111 94 187 94q55 0 84 -53q10 -16 30.5 -55t28.5 -52.5t25.5 -40t30 -36.5t32.5 -23.5t43 -17.5t51 -4q6 -29 6 -62q0 -121 -108 -120q-27 0 -48.5 3t-46 14t-37 16t-39 27.5t-32.5 27t-39 36t-37 35.5 q-6 -6 -47 -43t-56.5 -47t-50 -32.5t-66.5 -29.5t-66 -7q-106 0 -107 65zM-25 1686q0 25 25 26h166q127 0 198.5 -31.5t71.5 -119.5q-39 -211 -39 -484q0 -238 35 -600t35 -438q0 -96 -117 -96q-57 0 -135 21.5t-127 43.5l-49 23q66 150 65 518q0 395 -65 919 q-18 164 -64 218z" />
<glyph unicode="&#xcf;" horiz-adv-x="538" d="M-174 1929q0 76 47 136.5t117 60.5q78 0 121 -51.5t43 -122.5q0 -74 -44 -128.5t-120 -54.5q-80 0 -122 46.5t-42 113.5zM-25 1686q0 25 25 26h166q127 0 198.5 -31.5t71.5 -119.5q-39 -211 -39 -484q0 -238 35 -600t35 -438q0 -96 -117 -96q-57 0 -135 21.5t-127 43.5 l-49 23q66 150 65 518q0 395 -65 919q-18 164 -64 218zM242 1929q0 76 47 136.5t117 60.5q78 0 120.5 -51.5t42.5 -122.5q0 -74 -43.5 -128.5t-119.5 -54.5q-80 0 -122 46.5t-42 113.5z" />
<glyph unicode="&#xd0;" horiz-adv-x="1824" d="M-18 1014q0 154 116.5 310.5t291.5 269t383 184t386 71.5q281 0 460 -166.5t179 -484.5q0 -283 -121 -572.5t-341 -490.5t-472 -201q-88 6 -162 76q-115 -55 -186 -55q-23 0 -41 10t-30.5 34t-21.5 49.5t-14.5 67.5t-8.5 76.5t-4 91t-2 96.5t-1 103.5v104.5h-57 q-23 0 -47.5 32.5t-24.5 73.5q0 29 15 58q98 6 106 6q-10 190 -55 305q-125 -129 -148 -264q-113 0 -156.5 57t-43.5 158zM352 1087q147 74 242 74q100 0 100 -96q0 -113 -14 -270q82 20 137 45q6 0 18.5 -17.5t23.5 -46t11 -55.5q0 -86 -112 -103q-4 0 -41 -5t-55 -7 q-7 -90 -7 -170q0 -43 2 -65q172 41 326 137t254 213t157.5 240.5t57.5 228.5q0 111 -67.5 177.5t-200.5 66.5q-156 0 -412 -96.5t-420 -250.5z" />
<glyph unicode="&#xd1;" horiz-adv-x="1304" d="M57 410q0 164 28 510t28 469q0 168 -43 235q63 84 219 84q104 0 189 -40t93 -99q70 -600 310 -998q53 453 53 713q0 268 -45 428q190 106 321 107q121 0 121 -115q0 -92 -65.5 -560t-65.5 -720q0 -307 84 -447q-123 -23 -229 -22q-66 0 -116 8t-73.5 20.5t-25.5 24.5 q-141 555 -490 1163q-8 -193 -8 -299q0 -612 233 -897q-158 -63 -258 -63q-106 0 -165.5 68.5t-77 169t-17.5 260.5zM326 1884q0 178 194 179q66 0 171.5 -7.5t129.5 -7.5q156 0 217 72q39 -96 39 -160q0 -70 -37.5 -103.5t-99.5 -33.5q-39 0 -163 34t-195 34 q-139 0 -226 -109q-31 37 -30 102z" />
<glyph unicode="&#xd2;" horiz-adv-x="1509" d="M20 811q0 217 54.5 410.5t157 316.5t229.5 123q63 0 141 -25q139 201 297 201q186 0 318.5 -122t191.5 -310t59 -418q0 -201 -49 -394.5t-139 -353t-233.5 -257t-315.5 -97.5q-147 0 -269 52.5t-202 141.5t-135 209t-80 251t-25 272zM387 2118q0 84 125 178 q117 -143 223.5 -210.5t239.5 -69.5q31 -37 31 -68q0 -45 -84 -45q-225 0 -380 59.5t-155 155.5zM465 639q29 -231 140.5 -369.5t240.5 -138.5q94 0 162.5 99.5t100.5 249t32 325.5q0 182 -33 340t-104.5 263t-167.5 105q-90 0 -136.5 -105t-46.5 -259q0 -160 47.5 -296 t124.5 -165q-141 -106 -239 -106q-74 0 -121 57z" />
<glyph unicode="&#xd3;" horiz-adv-x="1509" d="M20 811q0 217 54.5 410.5t157 316.5t229.5 123q63 0 141 -25q139 201 297 201q186 0 318.5 -122t191.5 -310t59 -418q0 -201 -49 -394.5t-139 -353t-233.5 -257t-315.5 -97.5q-147 0 -269 52.5t-202 141.5t-135 209t-80 251t-25 272zM438 1915q0 14 8.5 30.5t16.5 26.5 l6 10q113 0 233.5 75t229.5 206q147 -68 147 -149q0 -94 -170 -169t-387 -75q-84 0 -84 45zM465 639q29 -231 140.5 -369.5t240.5 -138.5q94 0 162.5 99.5t100.5 249t32 325.5q0 182 -33 340t-104.5 263t-167.5 105q-90 0 -136.5 -105t-46.5 -259q0 -160 47.5 -296 t124.5 -165q-141 -106 -239 -106q-74 0 -121 57z" />
<glyph unicode="&#xd4;" horiz-adv-x="1509" d="M20 811q0 217 54.5 410.5t157 316.5t229.5 123q63 0 141 -25q139 201 297 201q186 0 318.5 -122t191.5 -310t59 -418q0 -201 -49 -394.5t-139 -353t-233.5 -257t-315.5 -97.5q-147 0 -269 52.5t-202 141.5t-135 209t-80 251t-25 272zM381 1952q0 16 6 35.5t15 30.5l6 10 q100 37 145 84t90 145q111 94 187 94q55 0 84 -53q10 -16 30.5 -55t28.5 -52.5t25.5 -40t30 -36.5t32.5 -23.5t43 -17.5t51 -4q6 -29 6 -62q0 -121 -108 -120q-27 0 -48.5 3t-46 14t-37 16t-39 27.5t-32.5 27t-39 36t-37 35.5q-6 -6 -47 -43t-56.5 -47t-50 -32.5 t-66.5 -29.5t-66 -7q-106 0 -107 65zM465 639q29 -231 140.5 -369.5t240.5 -138.5q94 0 162.5 99.5t100.5 249t32 325.5q0 182 -33 340t-104.5 263t-167.5 105q-90 0 -136.5 -105t-46.5 -259q0 -160 47.5 -296t124.5 -165q-141 -106 -239 -106q-74 0 -121 57z" />
<glyph unicode="&#xd5;" horiz-adv-x="1509" d="M20 811q0 217 54.5 410.5t157 316.5t229.5 123q63 0 141 -25q139 201 297 201q186 0 318.5 -122t191.5 -310t59 -418q0 -201 -49 -394.5t-139 -353t-233.5 -257t-315.5 -97.5q-147 0 -269 52.5t-202 141.5t-135 209t-80 251t-25 272zM406 1941q0 178 194 179 q66 0 171.5 -7.5t129.5 -7.5q156 0 217 72q39 -96 39 -160q0 -70 -37.5 -103.5t-99.5 -33.5q-39 0 -163 34t-195 34q-139 0 -226 -109q-31 37 -30 102zM465 639q29 -231 140.5 -369.5t240.5 -138.5q94 0 162.5 99.5t100.5 249t32 325.5q0 182 -33 340t-104.5 263t-167.5 105 q-90 0 -136.5 -105t-46.5 -259q0 -160 47.5 -296t124.5 -165q-141 -106 -239 -106q-74 0 -121 57z" />
<glyph unicode="&#xd6;" horiz-adv-x="1509" d="M20 811q0 217 54.5 410.5t157 316.5t229.5 123q63 0 141 -25q139 201 297 201q186 0 318.5 -122t191.5 -310t59 -418q0 -201 -49 -394.5t-139 -353t-233.5 -257t-315.5 -97.5q-147 0 -269 52.5t-202 141.5t-135 209t-80 251t-25 272zM322 2075q0 76 47 136t116 60 q78 0 121 -51t43 -123q0 -74 -44 -128t-120 -54q-80 0 -121.5 46t-41.5 114zM465 639q29 -231 140.5 -369.5t240.5 -138.5q94 0 162.5 99.5t100.5 249t32 325.5q0 182 -33 340t-104.5 263t-167.5 105q-90 0 -136.5 -105t-46.5 -259q0 -160 47.5 -296t124.5 -165 q-141 -106 -239 -106q-74 0 -121 57zM737 2075q0 76 47 136t117 60q78 0 121 -51t43 -123q0 -74 -44 -128t-120 -54q-80 0 -122 46t-42 114z" />
<glyph unicode="&#xd8;" horiz-adv-x="1509" d="M31 811q0 217 54 410.5t156.5 316.5t229.5 123q66 0 139 -25q125 201 299 201q182 0 312 -117q135 139 268 226q35 23 63 22q49 0 84 -56.5t47 -113.5l11 -57q-133 -74 -305 -262q90 -211 90 -492q0 -201 -49.5 -394.5t-139.5 -353t-233.5 -257t-315.5 -97.5 q-131 0 -256 47q-61 -174 -63 -268q-96 -53 -170 -53q-84 0 -84 90q0 25 10 72q37 117 105 295q-127 129 -189.5 325.5t-62.5 417.5zM467 772q0 -123 20 -213q13 27 76 160q-61 72 -86 223q-10 -74 -10 -170zM623 260q106 -129 233 -129q94 0 162.5 99.5t100.5 249t32 325.5 q0 166 -33 325q-285 -414 -495 -870zM664 1149q0 -104 18 -199q153 281 307 490q-63 74 -143 73q-90 0 -136 -105t-46 -259z" />
<glyph unicode="&#xd9;" horiz-adv-x="1370" d="M45 930q0 180 11.5 315t40 257t87 187.5t142.5 65.5q109 0 264 -115q-14 -35 -37 -105.5t-59.5 -340.5t-36.5 -602q0 -403 98 -404q100 0 279 469q-14 244 -15 920q0 205 121 205q57 0 136 -45t128 -90l51 -45q-70 -369 -69 -676q0 -381 94 -608.5t213 -274.5 q-63 -102 -152.5 -137t-212.5 -35q-203 0 -268 502q-254 -424 -452 -424q-117 0 -202 149.5t-123 366.5t-38 465zM395 2058q0 84 125 178q117 -143 223.5 -210.5t239.5 -69.5q31 -37 31 -68q0 -45 -84 -45q-225 0 -380 59.5t-155 155.5z" />
<glyph unicode="&#xda;" horiz-adv-x="1370" d="M45 930q0 180 11.5 315t40 257t87 187.5t142.5 65.5q109 0 264 -115q-14 -35 -37 -105.5t-59.5 -340.5t-36.5 -602q0 -403 98 -404q100 0 279 469q-14 244 -15 920q0 205 121 205q57 0 136 -45t128 -90l51 -45q-70 -369 -69 -676q0 -381 94 -608.5t213 -274.5 q-63 -102 -152.5 -137t-212.5 -35q-203 0 -268 502q-254 -424 -452 -424q-117 0 -202 149.5t-123 366.5t-38 465zM452 1874q0 14 7 30.5t16 26.5l8 11q113 0 233.5 74.5t229.5 205.5q147 -68 147 -149q0 -94 -170 -169t-387 -75q-84 0 -84 45z" />
<glyph unicode="&#xdb;" horiz-adv-x="1370" d="M45 930q0 180 11.5 315t40 257t87 187.5t142.5 65.5q109 0 264 -115q-14 -35 -37 -105.5t-59.5 -340.5t-36.5 -602q0 -403 98 -404q100 0 279 469q-14 244 -15 920q0 205 121 205q57 0 136 -45t128 -90l51 -45q-70 -369 -69 -676q0 -381 94 -608.5t213 -274.5 q-63 -102 -152.5 -137t-212.5 -35q-203 0 -268 502q-254 -424 -452 -424q-117 0 -202 149.5t-123 366.5t-38 465zM270 1919q0 16 6 35.5t15 30.5l6 10q100 37 145 84t90 145q111 94 187 94q55 0 84 -53q10 -16 30.5 -55t28.5 -52.5t25.5 -40t30 -36.5t32.5 -23.5t43 -17.5 t51 -4q6 -29 6 -62q0 -121 -108 -120q-27 0 -48.5 3t-46 14t-37 16t-39 27.5t-32.5 27t-39 36t-37 35.5q-6 -6 -47 -43t-56.5 -47t-50 -32.5t-66.5 -29.5t-66 -7q-106 0 -107 65z" />
<glyph unicode="&#xdc;" horiz-adv-x="1370" d="M45 930q0 180 11.5 315t40 257t87 187.5t142.5 65.5q109 0 264 -115q-14 -35 -37 -105.5t-59.5 -340.5t-36.5 -602q0 -403 98 -404q100 0 279 469q-14 244 -15 920q0 205 121 205q57 0 136 -45t128 -90l51 -45q-70 -369 -69 -676q0 -381 94 -608.5t213 -274.5 q-63 -102 -152.5 -137t-212.5 -35q-203 0 -268 502q-254 -424 -452 -424q-117 0 -202 149.5t-123 366.5t-38 465zM342 2015q0 76 47 136.5t117 60.5q78 0 121 -51.5t43 -122.5q0 -74 -44 -128.5t-120 -54.5q-80 0 -122 46.5t-42 113.5zM758 2015q0 76 47 136.5t117 60.5 q78 0 120.5 -51.5t42.5 -122.5q0 -74 -43.5 -128.5t-119.5 -54.5q-80 0 -122 46.5t-42 113.5z" />
<glyph unicode="&#xdd;" horiz-adv-x="1161" d="M-242 1536q6 12 19.5 30.5t60.5 66.5t101.5 85t143.5 68t187 31q154 0 225.5 -156t71.5 -410q0 -379 -123 -774q-10 -37 -10 -55q0 -51 51.5 -51t132 45t117.5 84q-4 940 -53 1016q154 45 281 45q167 -1 167 -101q0 -229 -106 -1513q-12 -156 -118.5 -274.5t-246 -173 t-280.5 -54.5q-154 0 -239 79t-85 195q0 109 77 213.5t220 165.5q20 -80 114.5 -203.5t166.5 -123.5q104 0 104 301v338q-82 -102 -228.5 -170t-266.5 -68q-145 0 -146 98q0 20 15 64q68 172 67 416q0 182 -40 340.5t-138 284.5t-242 161zM455 1862q0 14 8 30.5t16 26.5 l6 10q113 0 233.5 75t229.5 206q147 -68 148 -150q0 -94 -170 -168.5t-387 -74.5q-84 0 -84 45z" />
<glyph unicode="&#xde;" horiz-adv-x="1361" d="M31 709q0 127 101 269t269 269q0 377 -49 488q160 88 269 88q100 0 100 -97q0 -59 -8 -292q242 113 436 112q174 0 275.5 -98t101.5 -309q0 -195 -115 -369t-275.5 -270.5t-308.5 -96.5q-76 0 -114 43q31 -367 133 -446q-260 -78 -377 -78q-94 0 -94 416q0 184 14 485 q-160 -143 -160 -295q0 -23 2 -34q-113 0 -156.5 57t-43.5 158zM698 844q0 -143 7 -279q229 80 332.5 182.5t103.5 198.5q0 125 -172 125q-115 0 -271 -59v-168z" />
<glyph unicode="&#xdf;" horiz-adv-x="1110" d="M-66 557q0 23 13 47q96 4 143 8q-6 98 -13 209t-12.5 175.5t-5.5 80.5q0 154 201 197q82 47 211 47q90 0 151.5 -27.5t61.5 -79.5q0 -37 -37 -149.5t-37 -183.5q0 -209 271 -353q205 -109 204 -305q0 -121 -121.5 -207t-306.5 -86q-125 0 -191.5 56.5t-66.5 144.5 q0 90 62 178q68 -68 168 -67q10 0 24.5 3t39 24.5t24.5 58.5q0 16 -52.5 88.5t-114 160t-113.5 220.5t-52 260v43q-37 -119 -37 -459q0 -213 22.5 -578.5t22.5 -441.5q0 -96 -100 -96q-49 0 -115.5 22.5t-109.5 42.5l-43 23q76 178 75 625q0 76 -4 219l-71 -6 q-27 0 -59 31.5t-32 74.5z" />
<glyph unicode="&#xe0;" d="M-6 301q0 160 51 316.5t156.5 268t236.5 111.5q125 0 174 -170q57 14 99 15q86 0 86 -64q0 -102 -10.5 -235t-10.5 -176q0 -98 31 -181.5t115 -185.5q-125 -66 -240 -66q-74 0 -102.5 70t-38.5 211q-82 -168 -160 -223t-162 -55q-111 0 -168 102t-57 262zM223 1284 q0 84 125 178q117 -143 223.5 -210.5t239.5 -69.5q31 -37 31 -68q0 -45 -84 -45q-225 0 -380 59.5t-155 155.5zM303 260q0 -86 31 -86q51 0 114.5 106.5t63.5 264.5q0 41 -6 86q-8 55 -29 114q-76 -70 -125 -221t-49 -264z" />
<glyph unicode="&#xe1;" d="M-6 301q0 160 51 316.5t156.5 268t236.5 111.5q125 0 174 -170q57 14 99 15q86 0 86 -64q0 -102 -10.5 -235t-10.5 -176q0 -98 31 -181.5t115 -185.5q-125 -66 -240 -66q-74 0 -102.5 70t-38.5 211q-82 -168 -160 -223t-162 -55q-111 0 -168 102t-57 262zM219 1114 q0 14 7 30.5t16 26.5l8 11q113 0 233.5 74.5t229.5 205.5q147 -68 147 -149q0 -94 -170 -169t-387 -75q-84 0 -84 45zM303 260q0 -86 31 -86q51 0 114.5 106.5t63.5 264.5q0 41 -6 86q-8 55 -29 114q-76 -70 -125 -221t-49 -264z" />
<glyph unicode="&#xe2;" d="M-6 301q0 160 51 316.5t156.5 268t236.5 111.5q125 0 174 -170q57 14 99 15q86 0 86 -64q0 -102 -10.5 -235t-10.5 -176q0 -98 31 -181.5t115 -185.5q-125 -66 -240 -66q-74 0 -102.5 70t-38.5 211q-82 -168 -160 -223t-162 -55q-111 0 -168 102t-57 262zM72 1112 q0 16 7 35.5t13 30.5l6 10q100 37 145.5 84t90.5 145q111 94 186 94q55 0 84 -53q10 -16 30.5 -55t29 -52.5t26 -40t29.5 -36.5t32.5 -23.5t43 -17.5t51.5 -4q6 -29 6 -62q0 -121 -109 -120q-27 0 -48 3t-45.5 14t-37 16t-39 27.5t-32.5 27t-39 36t-37 35.5q-6 -6 -47 -43 t-56.5 -47t-50.5 -32.5t-66.5 -29.5t-66.5 -7q-106 0 -106 65zM303 260q0 -86 31 -86q51 0 114.5 106.5t63.5 264.5q0 41 -6 86q-8 55 -29 114q-76 -70 -125 -221t-49 -264z" />
<glyph unicode="&#xe3;" d="M-6 301q0 160 51 316.5t156.5 268t236.5 111.5q125 0 174 -170q57 14 99 15q86 0 86 -64q0 -102 -10.5 -235t-10.5 -176q0 -98 31 -181.5t115 -185.5q-125 -66 -240 -66q-74 0 -102.5 70t-38.5 211q-82 -168 -160 -223t-162 -55q-111 0 -168 102t-57 262zM72 1128 q0 178 194 179q66 0 171.5 -7.5t129.5 -7.5q156 0 217 72q39 -96 39 -160q0 -70 -37.5 -103.5t-99.5 -33.5q-39 0 -163 34t-195 34q-139 0 -226 -109q-31 37 -30 102zM303 260q0 -86 31 -86q51 0 114.5 106.5t63.5 264.5q0 41 -6 86q-8 55 -29 114q-76 -70 -125 -221 t-49 -264z" />
<glyph unicode="&#xe4;" d="M-2 301q0 160 51 316.5t156.5 268t236.5 111.5q125 0 174 -170q57 14 99 15q86 0 86 -64q0 -102 -10.5 -235t-10.5 -176q0 -98 31 -181.5t115 -185.5q-125 -66 -240 -66q-74 0 -102.5 70t-38.5 211q-82 -168 -160 -223t-162 -55q-111 0 -168 102t-57 262zM86 1198 q0 76 47 136.5t117 60.5q78 0 121 -51.5t43 -122.5q0 -74 -44 -128.5t-120 -54.5q-80 0 -122 46t-42 114zM307 260q0 -86 31 -86q51 0 114.5 106.5t63.5 264.5q0 41 -6 86q-8 55 -29 114q-76 -70 -125 -221t-49 -264zM502 1198q0 76 47 136.5t117 60.5q78 0 120.5 -51.5 t42.5 -122.5q0 -74 -43.5 -128.5t-119.5 -54.5q-80 0 -122 46t-42 114z" />
<glyph unicode="&#xe5;" d="M-6 301q0 160 51 316.5t156.5 268t236.5 111.5q125 0 174 -170q57 14 99 15q86 0 86 -64q0 -102 -10.5 -235t-10.5 -176q0 -98 31 -181.5t115 -185.5q-125 -66 -240 -66q-74 0 -102.5 70t-38.5 211q-82 -168 -160 -223t-162 -55q-111 0 -168 102t-57 262zM248 1198 q0 88 70.5 160t183.5 72q84 0 129 -50.5t45 -124.5q0 -88 -60.5 -155.5t-164.5 -67.5q-100 0 -151.5 47t-51.5 119zM303 260q0 -86 31 -86q51 0 114.5 106.5t63.5 264.5q0 41 -6 86q-8 55 -29 114q-76 -70 -125 -221t-49 -264zM394 1227q0 -104 75 -105q66 0 66 84 q0 49 -23.5 90t-60.5 41q-25 0 -41 -33.5t-16 -76.5z" />
<glyph unicode="&#xe6;" horiz-adv-x="1388" d="M-6 301q0 160 51 316.5t156.5 268t236.5 111.5q125 0 174 -170q39 10 82 15q137 147 303 147q170 0 263.5 -94t93.5 -225q0 -137 -99.5 -238.5t-273.5 -101.5q-80 0 -162 20q0 -113 42 -185.5t128 -72.5q55 0 105.5 41t74.5 113q74 -8 113 -42t39 -83 q0 -76 -109.5 -135.5t-251 -59.5t-257 71t-160.5 222q-84 -172 -161 -227t-163 -55q-111 0 -168 102t-57 262zM303 260q0 -86 31 -86q51 0 114.5 106.5t63.5 264.5q0 125 -33 203q-78 -70 -127 -221.5t-49 -266.5zM827 459q123 14 181.5 79.5t58.5 139.5t-39 74 q-74 0 -128 -86t-73 -207z" />
<glyph unicode="&#xe7;" horiz-adv-x="708" d="M-16 334q0 160 59 320.5t165.5 269t227.5 108.5q123 0 190.5 -60.5t67.5 -148.5q0 -72 -81 -177t-89 -171q-12 2 -31.5 7t-52 30t-32.5 57q-78 -2 -126.5 -85t-48.5 -181q0 -78 33 -129t96 -51q55 0 107.5 38.5t81.5 108.5q72 -6 110.5 -52t38.5 -97q0 -76 -91 -130 t-214 -59q8 -14 39 -59t48.5 -83t17.5 -77q0 -68 -43 -102.5t-109 -34.5q-72 0 -132 37t-69 92q186 104 187 156q0 14 -16.5 37.5t-16.5 40.5q-137 20 -227 118.5t-90 276.5z" />
<glyph unicode="&#xe8;" horiz-adv-x="864" d="M-6 410q0 221 147.5 400t331.5 179q170 0 263 -94t93 -225q0 -137 -99 -238.5t-273 -101.5q-80 0 -162 20q0 -113 42 -185.5t128 -72.5q55 0 105.5 41t74.5 113q74 -8 113 -42t39 -83q0 -76 -109.5 -135.5t-251.5 -59.5q-184 0 -313 117t-129 367zM182 1284q0 84 125 178 q117 -143 223.5 -210.5t239.5 -69.5q31 -37 31 -68q0 -45 -84 -45q-225 0 -380 59.5t-155 155.5zM303 459q123 14 181.5 79.5t58.5 139.5t-39 74q-74 0 -128 -86t-73 -207z" />
<glyph unicode="&#xe9;" horiz-adv-x="864" d="M-6 410q0 221 147.5 400t331.5 179q170 0 263 -94t93 -225q0 -137 -99 -238.5t-273 -101.5q-80 0 -162 20q0 -113 42 -185.5t128 -72.5q55 0 105.5 41t74.5 113q74 -8 113 -42t39 -83q0 -76 -109.5 -135.5t-251.5 -59.5q-184 0 -313 117t-129 367zM152 1114q0 14 8 30.5 t16 26.5l6 11q113 0 233.5 74.5t229.5 205.5q147 -68 148 -149q0 -94 -170 -169t-387 -75q-84 0 -84 45zM303 459q123 14 181.5 79.5t58.5 139.5t-39 74q-74 0 -128 -86t-73 -207z" />
<glyph unicode="&#xea;" horiz-adv-x="864" d="M-6 410q0 221 147.5 400t331.5 179q170 0 263 -94t93 -225q0 -137 -99 -238.5t-273 -101.5q-80 0 -162 20q0 -113 42 -185.5t128 -72.5q55 0 105.5 41t74.5 113q74 -8 113 -42t39 -83q0 -76 -109.5 -135.5t-251.5 -59.5q-184 0 -313 117t-129 367zM82 1112q0 16 6 35.5 t15 30.5l6 10q100 37 145 84t90 145q111 94 187 94q55 0 84 -53q10 -16 30.5 -55t28.5 -52.5t25.5 -40t30 -36.5t32.5 -23.5t43 -17.5t51 -4q6 -29 6 -62q0 -121 -108 -120q-27 0 -48.5 3t-46 14t-37 16t-39 27.5t-32.5 27t-39 36t-37 35.5q-6 -6 -47 -43t-56.5 -47 t-50 -32.5t-66.5 -29.5t-66 -7q-106 0 -107 65zM303 459q123 14 181.5 79.5t58.5 139.5t-39 74q-74 0 -128 -86t-73 -207z" />
<glyph unicode="&#xeb;" horiz-adv-x="864" d="M-6 410q0 221 147.5 400t331.5 179q170 0 263 -94t93 -225q0 -137 -99 -238.5t-273 -101.5q-80 0 -162 20q0 -113 42 -185.5t128 -72.5q55 0 105.5 41t74.5 113q74 -8 113 -42t39 -83q0 -76 -109.5 -135.5t-251.5 -59.5q-184 0 -313 117t-129 367zM113 1204 q0 76 47 136.5t116 60.5q78 0 121 -51.5t43 -122.5q0 -74 -44 -128.5t-120 -54.5q-80 0 -121.5 46.5t-41.5 113.5zM303 459q123 14 181.5 79.5t58.5 139.5t-39 74q-74 0 -128 -86t-73 -207zM528 1204q0 76 47.5 136.5t116.5 60.5q78 0 121 -51.5t43 -122.5q0 -74 -44 -128.5 t-120 -54.5q-80 0 -122 46.5t-42 113.5z" />
<glyph unicode="&#xec;" horiz-adv-x="466" d="M-143 1284q0 84 125 178q117 -143 223.5 -210.5t239.5 -69.5q31 -37 31 -68q0 -45 -84 -45q-225 0 -380 59.5t-155 155.5zM49 836q145 61 244 61q96 0 96 -115q0 -51 -29.5 -201.5t-29.5 -228.5q0 -205 121 -352q-125 -47 -301 -47q-94 0 -95 160q0 55 16.5 214.5 t16.5 250.5q0 152 -39 258z" />
<glyph unicode="&#xed;" horiz-adv-x="466" d="M-10 1114q0 14 7 30.5t16 26.5l8 11q113 0 233.5 74.5t229.5 205.5q147 -68 147 -149q0 -94 -170 -169t-387 -75q-84 0 -84 45zM49 836q145 61 244 61q96 0 96 -115q0 -51 -29.5 -201.5t-29.5 -228.5q0 -205 121 -352q-125 -47 -301 -47q-94 0 -95 160q0 55 16.5 214.5 t16.5 250.5q0 152 -39 258z" />
<glyph unicode="&#xee;" horiz-adv-x="466" d="M-160 1081q0 16 6.5 35t14.5 31l6 10q100 37 145 84t90 145q111 94 187 95q55 0 84 -54q10 -16 30.5 -55t28.5 -52t25.5 -40t30 -37t33 -23.5t43 -17.5t50.5 -4q6 -29 7 -61q0 -121 -109 -121q-27 0 -48.5 3t-46 14t-36.5 16.5t-39 28t-33 26.5t-38.5 35.5t-37.5 36.5 q-6 -6 -47 -43t-56 -47.5t-50 -33t-66.5 -29.5t-66.5 -7q-106 0 -107 65zM49 836q145 61 244 61q96 0 96 -115q0 -51 -29.5 -201.5t-29.5 -228.5q0 -205 121 -352q-125 -47 -301 -47q-94 0 -95 160q0 55 16.5 214.5t16.5 250.5q0 152 -39 258z" />
<glyph unicode="&#xef;" horiz-adv-x="466" d="M-127 1130q0 76 47 136.5t117 60.5q78 0 121 -51t43 -123q0 -74 -44 -128t-120 -54q-80 0 -122 46t-42 113zM49 836q145 61 244 61q96 0 96 -115q0 -51 -29.5 -201.5t-29.5 -228.5q0 -205 121 -352q-125 -47 -301 -47q-94 0 -95 160q0 55 16.5 214.5t16.5 250.5 q0 152 -39 258zM289 1130q0 76 47 136.5t117 60.5q78 0 120.5 -51t42.5 -123q0 -74 -43.5 -128t-119.5 -54q-80 0 -122 46t-42 113z" />
<glyph unicode="&#xf0;" horiz-adv-x="806" d="M-18 315q0 145 44 285.5t136 238t209 97.5q102 0 176 -90q-10 137 -35 237l-109 -2q-23 0 -47 33t-24 74q0 29 14 57l113 6q-94 219 -254 285q150 94 258 94q215 0 293 -340q74 16 129 43q6 0 18 -17.5t23.5 -46t11.5 -55.5q0 -86 -113 -102l-41 -6q10 -117 11 -225 q0 -170 -34 -333t-101.5 -302.5t-181 -224t-259.5 -84.5q-117 0 -177 107.5t-60 270.5zM295 295q0 -121 39 -121q98 20 156.5 188.5t58.5 393.5q-82 0 -142.5 -82t-86 -183.5t-25.5 -195.5z" />
<glyph unicode="&#xf1;" horiz-adv-x="892" d="M10 887q160 88 269 88q100 0 100 -96q0 -23 -2 -37q61 61 129.5 94t118.5 33q221 0 221 -307q0 -76 -16.5 -229.5t-16.5 -213.5q0 -168 68 -219q-94 -72 -193 -72q-174 0 -174 234q0 68 19.5 213t19.5 205q0 174 -129 174q-27 0 -55 -19q-27 -248 -27 -405 q0 -287 88 -359q-117 -18 -197 -18q-109 0 -154.5 48t-45.5 167q0 25 15 153t15 222q0 184 -53 344zM52 1128q0 178 194 179q66 0 171.5 -7.5t129.5 -7.5q156 0 217 72q39 -96 39 -160q0 -70 -37.5 -103.5t-99.5 -33.5q-39 0 -163 34t-195 34q-139 0 -226 -109 q-31 37 -30 102z" />
<glyph unicode="&#xf2;" horiz-adv-x="888" d="M-10 412q0 201 84 366.5t196 165.5q14 0 56.5 -22.5t66.5 -49.5q55 84 109 84q135 0 214 -95t93 -245q33 10 82 35q6 -8 6 -22q0 -61 -86 -129q-12 -217 -130 -387t-296 -170q-104 0 -183 38.5t-124 106.5t-66.5 148.5t-21.5 175.5zM68 1276q0 84 125 178 q117 -143 223.5 -210.5t239.5 -69.5q31 -37 31 -68q0 -45 -84 -45q-225 0 -380 59.5t-155 155.5zM289 324q0 -193 104 -193q63 0 100 87t48 218q-178 23 -207 172q-45 -154 -45 -284zM465 723q0 -88 78 -125q-10 178 -54 178q-24 0 -24 -53z" />
<glyph unicode="&#xf3;" horiz-adv-x="888" d="M-10 412q0 201 84 366.5t196 165.5q14 0 56.5 -22.5t66.5 -49.5q55 84 109 84q135 0 214 -95t93 -245q33 10 82 35q6 -8 6 -22q0 -61 -86 -129q-12 -217 -130 -387t-296 -170q-104 0 -183 38.5t-124 106.5t-66.5 148.5t-21.5 175.5zM174 1102q0 14 7 30.5t16 26.5l8 11 q113 0 233.5 74.5t229.5 205.5q147 -68 147 -149q0 -94 -170 -169t-387 -75q-84 0 -84 45zM289 324q0 -193 104 -193q63 0 100 87t48 218q-178 23 -207 172q-45 -154 -45 -284zM465 723q0 -88 78 -125q-10 178 -54 178q-24 0 -24 -53z" />
<glyph unicode="&#xf4;" horiz-adv-x="888" d="M-10 412q0 201 84 366.5t196 165.5q14 0 56.5 -22.5t66.5 -49.5q55 84 109 84q135 0 214 -95t93 -245q33 10 82 35q6 -8 6 -22q0 -61 -86 -129q-12 -217 -130 -387t-296 -170q-104 0 -183 38.5t-124 106.5t-66.5 148.5t-21.5 175.5zM31 1108q0 16 7 35.5t13 30.5l6 10 q100 37 145.5 84t90.5 145q111 94 186 94q55 0 84 -53q10 -16 30.5 -55t29 -52.5t26 -40t29.5 -36.5t32.5 -23.5t43 -17.5t51.5 -4q6 -29 6 -62q0 -121 -109 -121q-27 0 -48 3.5t-45.5 14.5t-37 16t-39 27.5t-32.5 27t-39 36t-37 35.5q-6 -6 -47 -43t-56.5 -47t-50 -32.5 t-66.5 -30t-67 -7.5q-106 0 -106 66zM289 324q0 -193 104 -193q63 0 100 87t48 218q-178 23 -207 172q-45 -154 -45 -284zM465 723q0 -88 78 -125q-10 178 -54 178q-24 0 -24 -53z" />
<glyph unicode="&#xf5;" horiz-adv-x="888" d="M-10 412q0 201 84 366.5t196 165.5q14 0 56.5 -22.5t66.5 -49.5q55 84 109 84q135 0 214 -95t93 -245q33 10 82 35q6 -8 6 -22q0 -61 -86 -129q-12 -217 -130 -387t-296 -170q-104 0 -183 38.5t-124 106.5t-66.5 148.5t-21.5 175.5zM47 1128q0 178 194 179 q66 0 171.5 -7.5t129.5 -7.5q156 0 217 72q39 -96 39 -160q0 -70 -37.5 -103.5t-99.5 -33.5q-39 0 -163 34t-195 34q-139 0 -226 -109q-31 37 -30 102zM289 324q0 -193 104 -193q63 0 100 87t48 218q-178 23 -207 172q-45 -154 -45 -284zM465 723q0 -88 78 -125 q-10 178 -54 178q-24 0 -24 -53z" />
<glyph unicode="&#xf6;" horiz-adv-x="888" d="M-10 412q0 201 84 366.5t196 165.5q14 0 56.5 -22.5t66.5 -49.5q55 84 109 84q135 0 214 -95t93 -245q33 10 82 35q6 -8 6 -22q0 -61 -86 -129q-12 -217 -130 -387t-296 -170q-104 0 -183 38.5t-124 106.5t-66.5 148.5t-21.5 175.5zM47 1163q0 76 47 136.5t117 60.5 q78 0 121 -51.5t43 -122.5q0 -74 -44 -128t-120 -54q-80 0 -122 46t-42 113zM289 324q0 -193 104 -193q63 0 100 87t48 218q-178 23 -207 172q-45 -154 -45 -284zM463 1163q0 76 47 136.5t117 60.5q78 0 121 -51.5t43 -122.5q0 -74 -44 -128t-120 -54q-80 0 -122 46t-42 113 zM465 723q0 -88 78 -125q-10 178 -54 178q-24 0 -24 -53z" />
<glyph unicode="&#xf7;" horiz-adv-x="1259" d="M74 719q0 20 7 44.5t15 39.5l8 14q350 0 604.5 8.5t331.5 16.5l80 8q35 -47 35 -90q0 -55 -62.5 -88t-164.5 -33h-742q-113 0 -112 80zM426 1061q0 72 49 129t123 57q78 0 121 -45t43 -110q0 -70 -46 -121t-126 -51q-82 0 -123 40.5t-41 100.5zM451 340q0 70 48 127 t122 57q78 0 120.5 -45t42.5 -110q0 -70 -46 -121t-126 -51q-82 0 -121.5 41t-39.5 102z" />
<glyph unicode="&#xf8;" horiz-adv-x="888" d="M-10 412q0 201 84 366.5t196 165.5q14 0 56.5 -22.5t66.5 -49.5q55 84 109 84q47 0 88 -12q31 55 48 82t46 68t56.5 58t56.5 17q63 0 133 -114q-72 -39 -197 -217q63 -86 76 -222q33 10 82 35q6 -8 6 -22q0 -61 -86 -129q-12 -217 -130 -387t-296 -170q-84 0 -145 24 q-45 -123 -45 -182q-61 -20 -95 -21q-86 0 -86 84t86 211q-111 129 -110 353zM289 324q0 -193 104 -193q63 0 100 87t48 218q-178 23 -207 172q-45 -154 -45 -284zM465 723q0 -88 78 -125q-10 178 -54 178q-24 0 -24 -53z" />
<glyph unicode="&#xf9;" horiz-adv-x="890" d="M14 426q0 164 33 377q0 2 3 7t14.5 17.5t29 21.5t52 17t79.5 8q63 0 144 -14q-49 -209 -50 -371q0 -115 25 -181t62 -66q41 0 86 84q-8 57 -9 145q0 94 10.5 198.5t20.5 161.5l10 56q6 47 138 47q145 0 184 -55q-25 -29 -48.5 -182.5t-23.5 -305.5q0 -334 113 -334 q0 -4 -1 -11t-8.5 -23.5t-18.5 -29.5t-35.5 -24.5t-57.5 -11.5q-76 0 -143.5 58.5t-104.5 179.5q-39 -133 -97.5 -202t-123.5 -69q-283 0 -283 502zM178 1284q0 84 125 178q117 -143 223.5 -210.5t239.5 -69.5q31 -37 31 -68q0 -45 -84 -45q-225 0 -380 59.5t-155 155.5z " />
<glyph unicode="&#xfa;" horiz-adv-x="890" d="M14 426q0 164 33 377q0 2 3 7t14.5 17.5t29 21.5t52 17t79.5 8q63 0 144 -14q-49 -209 -50 -371q0 -115 25 -181t62 -66q41 0 86 84q-8 57 -9 145q0 94 10.5 198.5t20.5 161.5l10 56q6 47 138 47q145 0 184 -55q-25 -29 -48.5 -182.5t-23.5 -305.5q0 -334 113 -334 q0 -4 -1 -11t-8.5 -23.5t-18.5 -29.5t-35.5 -24.5t-57.5 -11.5q-76 0 -143.5 58.5t-104.5 179.5q-39 -133 -97.5 -202t-123.5 -69q-283 0 -283 502zM194 1114q0 14 7 30.5t16 26.5l8 11q113 0 233.5 74.5t229.5 205.5q147 -68 147 -149q0 -94 -170 -169t-387 -75 q-84 0 -84 45z" />
<glyph unicode="&#xfb;" horiz-adv-x="890" d="M14 426q0 164 33 377q0 2 3 7t14.5 17.5t29 21.5t52 17t79.5 8q63 0 144 -14q-49 -209 -50 -371q0 -115 25 -181t62 -66q41 0 86 84q-8 57 -9 145q0 94 10.5 198.5t20.5 161.5l10 56q6 47 138 47q145 0 184 -55q-25 -29 -48.5 -182.5t-23.5 -305.5q0 -334 113 -334 q0 -4 -1 -11t-8.5 -23.5t-18.5 -29.5t-35.5 -24.5t-57.5 -11.5q-76 0 -143.5 58.5t-104.5 179.5q-39 -133 -97.5 -202t-123.5 -69q-283 0 -283 502zM70 1112q0 16 6 35.5t15 30.5l6 10q100 37 145 84t90 145q111 94 187 94q55 0 84 -53q10 -16 30.5 -55t28.5 -52.5t25.5 -40 t30 -36.5t32.5 -23.5t43 -17.5t51 -4q6 -29 6 -62q0 -121 -108 -120q-27 0 -48.5 3t-46 14t-37 16t-39 27.5t-32.5 27t-39 36t-37 35.5q-6 -6 -47 -43t-56.5 -47t-50 -32.5t-66.5 -29.5t-66 -7q-106 0 -107 65z" />
<glyph unicode="&#xfc;" horiz-adv-x="890" d="M14 426q0 164 33 377q0 2 3 7t14.5 17.5t29 21.5t52 17t79.5 8q63 0 144 -14q-49 -209 -50 -371q0 -115 25 -181t62 -66q41 0 86 84q-8 57 -9 145q0 94 10.5 198.5t20.5 161.5l10 56q6 47 138 47q145 0 184 -55q-25 -29 -48.5 -182.5t-23.5 -305.5q0 -334 113 -334 q0 -4 -1 -11t-8.5 -23.5t-18.5 -29.5t-35.5 -24.5t-57.5 -11.5q-76 0 -143.5 58.5t-104.5 179.5q-39 -133 -97.5 -202t-123.5 -69q-283 0 -283 502zM57 1159q0 76 47.5 136.5t116.5 60.5q78 0 121 -51.5t43 -122.5q0 -74 -44 -128.5t-120 -54.5q-80 0 -122 46.5t-42 113.5z M473 1159q0 76 47 136.5t117 60.5q78 0 121 -51.5t43 -122.5q0 -74 -44 -128.5t-120 -54.5q-80 0 -122 46.5t-42 113.5z" />
<glyph unicode="&#xfd;" horiz-adv-x="882" d="M-27 -297q0 88 166 162q12 -47 82 -101.5t139 -54.5q168 0 168 338v172q-41 -131 -98 -199.5t-123 -68.5q-283 0 -282 502q0 164 32 376q0 2 3 7.5t14.5 17.5t29 21.5t52 17.5t80.5 8q63 0 143 -14q-49 -209 -49 -371q0 -115 23.5 -181.5t62.5 -66.5q57 0 112 142 q-4 377 -39 436q133 45 236 45q113 0 113 -72q0 -82 -10.5 -213t-30 -339t-29.5 -324q-16 -190 -182 -303t-355 -113q-113 0 -185.5 45t-72.5 131zM180 1044q0 14 8.5 31t16.5 27l6 10q113 0 233.5 75t229.5 206q147 -68 147 -150q0 -94 -170 -169t-387 -75q-84 0 -84 45z " />
<glyph unicode="&#xfe;" horiz-adv-x="851" d="M-31 1401q190 61 246 61q61 0 82.5 -47t21.5 -164q0 -88 -6 -227q-4 -207 -8 -289q76 135 146.5 179t148.5 44q117 0 177.5 -107.5t60.5 -270.5q0 -145 -44 -285.5t-136.5 -238t-208.5 -97.5q-86 0 -158 68q4 -315 51 -424q-160 -88 -268 -88q-100 0 -101 96q0 98 27 300 t27 388q0 47 4 237.5t4 309.5q0 477 -66 555zM289 137q76 8 132 90t79.5 180.5t23.5 190.5q0 123 -39 123q-33 0 -71.5 -41t-75.5 -143.5t-49 -243.5v-156z" />
<glyph unicode="&#xff;" horiz-adv-x="882" d="M-27 -297q0 88 166 162q12 -47 82 -101.5t139 -54.5q168 0 168 338v172q-41 -131 -98 -199.5t-123 -68.5q-283 0 -282 502q0 164 32 376q0 2 3 7.5t14.5 17.5t29 21.5t52 17.5t80.5 8q63 0 143 -14q-49 -209 -49 -371q0 -115 23.5 -181.5t62.5 -66.5q57 0 112 142 q-4 377 -39 436q133 45 236 45q113 0 113 -72q0 -82 -10.5 -213t-30 -339t-29.5 -324q-16 -190 -182 -303t-355 -113q-113 0 -185.5 45t-72.5 131zM92 1130q0 76 47 136.5t117 60.5q78 0 121 -51t43 -123q0 -74 -44 -128t-120 -54q-80 0 -122 46t-42 113zM508 1130 q0 76 47 136.5t117 60.5q78 0 121 -51t43 -123q0 -74 -44 -128t-120 -54q-80 0 -122 46t-42 113z" />
<glyph unicode="&#x152;" horiz-adv-x="2506" d="M20 811q0 217 54.5 410.5t157 316.5t229.5 123q63 0 141 -25q139 201 297 201q268 0 424 -252q129 90 296 142.5t320 52.5q188 0 305 -84t117 -256q0 -104 -54 -174t-153 -70q4 16 5 23q0 43 -64.5 68.5t-161.5 25.5q-111 0 -214 -31t-181 -102.5t-78 -171.5 q0 -82 127 -82q152 0 451 108q18 6 30 6q37 0 37 -41q0 -14 -4 -30.5t-8 -26.5l-4 -10q-283 -102 -514.5 -240.5t-231.5 -216.5q0 -59 160 -59q90 0 183.5 19.5t199 63.5t203.5 132t168 211q221 -59 221 -242q0 -106 -81 -228t-216 -226.5t-333.5 -173t-411.5 -68.5 q-207 0 -336 119q-164 -137 -369 -138q-147 0 -269 52.5t-202 141.5t-135 209t-80 251t-25 272zM465 639q29 -231 140.5 -369.5t240.5 -138.5q82 0 145 76q-8 33 -8 78q0 141 103.5 273t310.5 218v15q-106 31 -176 117.5t-105 186t-65.5 195.5t-81.5 159.5t-133 63.5 q-90 0 -136.5 -105t-46.5 -259q0 -160 47.5 -296t124.5 -165q-141 -106 -239 -106q-74 0 -121 57z" />
<glyph unicode="&#x153;" horiz-adv-x="1419" d="M-10 412q0 201 83.5 366.5t196.5 165.5q10 0 48 -19.5t65 -43.5q43 76 119 75q143 0 227 -110q139 143 299 143q170 0 262 -93t92 -224q0 -137 -99 -239.5t-273 -102.5q-68 0 -162 22q2 -115 44 -187.5t128 -72.5q55 0 105.5 41t74.5 113q74 -8 113 -42t39 -83 q0 -76 -109.5 -135.5t-251.5 -59.5q-221 0 -340 148q-115 -131 -266 -131q-104 0 -183 38.5t-124 106.5t-66.5 148.5t-21.5 175.5zM287 324q0 -193 106 -193q59 0 96 78t50 197q-156 78 -185 264q-68 -193 -67 -346zM477 743q0 -100 68 -194q-2 94 -17.5 159.5t-38.5 67.5 q-12 0 -12 -33zM858 459q123 14 181.5 79.5t58.5 139.5t-39 74q-74 0 -127 -85t-74 -208z" />
<glyph unicode="&#x178;" horiz-adv-x="1161" d="M-242 1536q6 12 19.5 30.5t60.5 66.5t101.5 85t143.5 68t187 31q154 0 225.5 -156t71.5 -410q0 -379 -123 -774q-10 -37 -10 -55q0 -51 51.5 -51t132 45t117.5 84q-4 940 -53 1016q154 45 281 45q167 -1 167 -101q0 -229 -106 -1513q-12 -156 -118.5 -274.5t-246 -173 t-280.5 -54.5q-154 0 -239 79t-85 195q0 109 77 213.5t220 165.5q20 -80 114.5 -203.5t166.5 -123.5q104 0 104 301v338q-82 -102 -228.5 -170t-266.5 -68q-145 0 -146 98q0 20 15 64q68 172 67 416q0 182 -40 340.5t-138 284.5t-242 161zM377 1929q0 76 47 136.5t117 60.5 q78 0 121 -51.5t43 -122.5q0 -74 -44 -128.5t-120 -54.5q-80 0 -122 46.5t-42 113.5zM793 1929q0 76 47 136.5t116 60.5q78 0 121 -51.5t43 -122.5q0 -74 -44 -128.5t-120 -54.5q-80 0 -121.5 46.5t-41.5 113.5z" />
<glyph unicode="&#x2c6;" d="M45 1112q0 16 6 35.5t15 30.5l6 10q100 37 145 84t90 145q111 94 187 94q55 0 84 -53q10 -16 30.5 -55t28.5 -52.5t25.5 -40t30 -36.5t32.5 -23.5t43 -17.5t51 -4q6 -29 6 -62q0 -121 -108 -120q-27 0 -48.5 3t-46 14t-37 16t-39 27.5t-32.5 27t-39 36t-37 35.5 q-6 -6 -47 -43t-56.5 -47t-50 -32.5t-66.5 -29.5t-66 -7q-106 0 -107 65z" />
<glyph unicode="&#x2dc;" d="M72 1128q0 178 194 179q66 0 171.5 -7.5t129.5 -7.5q156 0 217 72q39 -96 39 -160q0 -70 -37.5 -103.5t-99.5 -33.5q-39 0 -163 34t-195 34q-139 0 -226 -109q-31 37 -30 102z" />
<glyph unicode="&#x2000;" horiz-adv-x="1175" />
<glyph unicode="&#x2001;" horiz-adv-x="2351" />
<glyph unicode="&#x2002;" horiz-adv-x="1175" />
<glyph unicode="&#x2003;" horiz-adv-x="2351" />
<glyph unicode="&#x2004;" horiz-adv-x="783" />
<glyph unicode="&#x2005;" horiz-adv-x="587" />
<glyph unicode="&#x2006;" horiz-adv-x="391" />
<glyph unicode="&#x2007;" horiz-adv-x="391" />
<glyph unicode="&#x2008;" horiz-adv-x="293" />
<glyph unicode="&#x2009;" horiz-adv-x="470" />
<glyph unicode="&#x200a;" horiz-adv-x="130" />
<glyph unicode="&#x2010;" horiz-adv-x="1079" d="M33 397q0 90 51 154.5t147 64.5q92 0 279.5 -52t263.5 -52q143 0 197 127q80 -61 80 -190q0 -90 -51.5 -155t-147.5 -65q-57 0 -236.5 61.5t-271.5 61.5q-160 0 -231 -145q-80 61 -80 190z" />
<glyph unicode="&#x2011;" horiz-adv-x="1079" d="M33 397q0 90 51 154.5t147 64.5q92 0 279.5 -52t263.5 -52q143 0 197 127q80 -61 80 -190q0 -90 -51.5 -155t-147.5 -65q-57 0 -236.5 61.5t-271.5 61.5q-160 0 -231 -145q-80 61 -80 190z" />
<glyph unicode="&#x2012;" horiz-adv-x="1079" d="M33 397q0 90 51 154.5t147 64.5q92 0 279.5 -52t263.5 -52q143 0 197 127q80 -61 80 -190q0 -90 -51.5 -155t-147.5 -65q-57 0 -236.5 61.5t-271.5 61.5q-160 0 -231 -145q-80 61 -80 190z" />
<glyph unicode="&#x2013;" horiz-adv-x="796" d="M29 389q0 84 38.5 145.5t110.5 61.5q70 0 207 -41t201 -41q98 0 166 68q20 -55 20 -127q0 -92 -36 -159t-111 -67q-47 0 -176.5 37t-194.5 37q-109 0 -168 -74q-57 51 -57 160z" />
<glyph unicode="&#x2014;" horiz-adv-x="1529" d="M33 377q0 90 74 154.5t215 64.5q131 0 400 -52t380 -52q205 0 282 126q117 -63 117 -190q0 -88 -72.5 -143.5t-216.5 -55.5q-82 0 -339 61.5t-390 61.5q-231 0 -333 -145q-117 61 -117 170z" />
<glyph unicode="&#x2018;" horiz-adv-x="501" d="M123 1262q0 131 70.5 247.5t166.5 116.5q53 0 97 -37q-111 -70 -111 -159q0 -29 8 -46q63 -2 96 -43t33 -102q0 -76 -49 -135.5t-135 -59.5q-88 0 -132 61.5t-44 156.5z" />
<glyph unicode="&#x2019;" horiz-adv-x="501" d="M61 1432q0 76 49.5 135t135.5 59q88 0 132 -61.5t44 -155.5q0 -131 -70.5 -248t-167.5 -117q-53 0 -96 37q111 70 111 160q0 29 -9 45q-63 2 -96 43t-33 103z" />
<glyph unicode="&#x201a;" horiz-adv-x="571" d="M63 199q0 82 54.5 147.5t148.5 65.5q98 0 146.5 -68t48.5 -172q0 -145 -77 -272t-183 -127q-61 0 -109 39q123 76 123 178q0 33 -8 49q-68 2 -106 48t-38 112z" />
<glyph unicode="&#x201c;" horiz-adv-x="909" d="M123 1262q0 131 70.5 247.5t166.5 116.5q53 0 97 -37q-111 -70 -111 -159q0 -29 8 -46q63 -2 96 -43t33 -102q0 -76 -49 -135.5t-135 -59.5q-88 0 -132 61.5t-44 156.5zM531 1262q0 131 70.5 247.5t166.5 116.5q53 0 97 -37q-111 -70 -111 -159q0 -29 8 -46q63 -2 96 -43 t33 -102q0 -76 -49 -135.5t-135 -59.5q-88 0 -132 61.5t-44 156.5z" />
<glyph unicode="&#x201d;" horiz-adv-x="909" d="M61 1432q0 76 49.5 135t135.5 59q88 0 132 -61.5t44 -155.5q0 -131 -70.5 -248t-167.5 -117q-53 0 -96 37q111 70 111 160q0 29 -9 45q-63 2 -96 43t-33 103zM469 1432q0 76 49.5 135t135.5 59q88 0 132 -61.5t44 -155.5q0 -131 -70.5 -248t-167.5 -117q-53 0 -96 37 q111 70 111 160q0 29 -9 45q-63 2 -96 43t-33 103z" />
<glyph unicode="&#x201e;" horiz-adv-x="1019" d="M63 199q0 82 54.5 147.5t148.5 65.5q98 0 146.5 -68t48.5 -172q0 -145 -77 -272t-183 -127q-61 0 -109 39q123 76 123 178q0 33 -8 49q-68 2 -106 48t-38 112zM512 199q0 82 54.5 147.5t148.5 65.5q98 0 146.5 -68t48.5 -172q0 -145 -77 -272t-183 -127q-61 0 -109 39 q123 76 123 178q0 33 -8 49q-68 2 -106 48t-38 112z" />
<glyph unicode="&#x2022;" horiz-adv-x="663" d="M63 399q0 104 72 189.5t178 85.5q117 0 179.5 -68.5t62.5 -163.5q0 -100 -67.5 -177t-184.5 -77q-121 0 -180.5 60.5t-59.5 150.5z" />
<glyph unicode="&#x2026;" horiz-adv-x="1492" d="M39 117q0 84 57.5 151.5t143.5 67.5q92 0 142 -54.5t50 -129.5q0 -82 -54.5 -142.5t-146.5 -60.5q-96 0 -144 48t-48 120zM543 117q0 84 57.5 151.5t143.5 67.5q92 0 142 -54.5t50 -129.5q0 -82 -54.5 -142.5t-146.5 -60.5q-96 0 -144 48t-48 120zM1047 117 q0 84 57.5 151.5t143.5 67.5q92 0 142 -54.5t50 -129.5q0 -82 -54.5 -142.5t-146.5 -60.5q-96 0 -144 48t-48 120z" />
<glyph unicode="&#x202f;" horiz-adv-x="470" />
<glyph unicode="&#x2039;" horiz-adv-x="1011" d="M0 451q0 43 11.5 93t21.5 52q199 20 444.5 112.5t366.5 192.5q41 -25 80 -82t39 -110q0 -98 -144 -136q-180 -43 -316 -68.5t-181 -29.5l-46 -4q123 -12 270.5 -69.5t262.5 -149.5t115 -182q0 -104 -197 -195q-82 143 -177 245.5t-193.5 159t-176.5 85t-170 45.5 q-10 4 -10 41z" />
<glyph unicode="&#x203a;" horiz-adv-x="1011" d="M0 713q0 53 39 110.5t80 81.5q121 -100 366.5 -192t444.5 -113q10 -2 21.5 -52t11.5 -93q0 -37 -11 -41q-92 -16 -169.5 -45t-176 -85.5t-194 -158.5t-176.5 -246q-197 90 -197 195q0 90 114.5 182t262 149.5t270.5 69.5q-135 4 -543 103q-143 37 -143 135z" />
<glyph unicode="&#x205f;" horiz-adv-x="587" />
<glyph unicode="&#x20ac;" horiz-adv-x="1445" d="M59 596q0 27 11 45q57 0 108 -1t62 -1v59l-84 -2q-27 0 -58.5 32t-31.5 75q0 23 12 47l176 8q57 375 303 727q8 10 54 68.5t72 87t69 70.5t80.5 61.5t72.5 19.5q82 0 186.5 -56t183.5 -155.5t79 -203.5q0 -33 -28 -72t-59.5 -73t-59 -98.5t-27.5 -141.5q0 -55 10 -105 q-127 6 -191.5 58.5t-72.5 183.5q-53 0 -129 -97.5t-135 -236.5q86 14 114 29q16 0 74.5 -57.5t58.5 -98.5q0 -59 -125 -59h-186q-12 -45 -16 -68q313 10 387 76q4 0 10 -11.5t10 -32t4 -40.5q0 -66 -47 -113t-160 -47h-213q20 -223 250 -223q117 0 243 126t151 275 q117 0 178 -57t61 -162q0 -82 -41 -177t-112.5 -180t-182 -141.5t-235.5 -56.5q-250 0 -418 164t-213 434l-98 2q-29 0 -63 37t-34 82z" />
<glyph unicode="&#xe000;" horiz-adv-x="942" d="M0 0v942h942v-942h-942z" />
<glyph unicode="&#xfb03;" horiz-adv-x="1456" d="M-66 557q0 23 13 47l141 6q-6 98 -13 210t-11.5 176.5t-4.5 80.5q0 160 209 199q82 51 168 51q154 0 219 -86q139 68 328 68q160 0 271.5 -53.5t111.5 -153.5q0 -61 -55.5 -97t-128.5 -36q-68 0 -117 30.5t-49 83.5q0 35 24.5 60.5t49.5 34.5l22 8q0 12 -30.5 33.5 t-65.5 21.5t-66.5 -25.5t-62.5 -86t-51.5 -183.5t-24.5 -295q111 14 139 27q14 0 42 -48t28 -89q0 -76 -105 -76h-104q4 -184 23.5 -481t19.5 -363q0 -96 -100 -96q-49 0 -116 22.5t-110 42.5l-43 23q76 178 76 625q0 76 -4 223q-74 0 -209 -4q4 -152 21.5 -428.5 t17.5 -360.5q0 -96 -100 -96q-49 0 -116 21.5t-110 44.5l-43 22q78 182 78 633q0 53 -1 96t-1 64l-69 -2q-27 0 -59 31.5t-32 74.5zM346 621l203 12q-4 90 -23 336q-39 -12 -86 -13q10 35 11 80q0 80 -43 138q-62 -156 -62 -553zM1038 836q145 61 244 61q96 0 96 -115 q0 -51 -29.5 -201.5t-29.5 -228.5q0 -205 121 -352q-125 -47 -301 -47q-94 0 -95 160q0 55 16.5 214.5t16.5 250.5q0 152 -39 258z" />
</font>
</defs>
</svg>
