<?xml version="1.0" encoding="utf-8"?>
<!-- Generator: Adobe Illustrator 16.0.3, SVG Export Plug-In . SVG Version: 6.00 Build 0)  -->
<!DOCTYPE svg PUBLIC "-//W3C//DTD SVG 1.1//EN" "http://www.w3.org/Graphics/SVG/1.1/DTD/svg11.dtd">
<svg version="1.1" id="Layer_1" xmlns="http://www.w3.org/2000/svg" xmlns:xlink="http://www.w3.org/1999/xlink" x="0px" y="0px"
	 width="10px" height="3px" viewBox="5 1.5 10 3" enable-background="new 5 1.5 10 3" xml:space="preserve">
<g>
	<g>
		<defs>
			<rect id="SVGID_1_" x="5" y="1.5" width="10" height="3"/>
		</defs>
		<clipPath id="SVGID_2_">
			<use xlink:href="#SVGID_1_"  overflow="visible"/>
		</clipPath>
		<path clip-path="url(#SVGID_2_)" fill="#E8E8E8" d="M10.004,3.981c-1.42,0-2.155-0.587-2.803-1.105
			C6.601,2.396,6.082,1.981,5,1.981V1.018c1.42,0,2.154,0.587,2.803,1.105c0.601,0.48,1.119,0.895,2.201,0.895
			c1.086,0,1.602-0.412,2.199-0.888c0.644-0.514,1.373-1.096,2.791-1.112l0.011,0.963c-1.087,0.013-1.604,0.425-2.201,0.901
			C12.159,3.398,11.428,3.981,10.004,3.981z"/>
	</g>
	<g>
		<defs>
			<rect id="SVGID_3_" x="5" y="1.5" width="10" height="3"/>
		</defs>
		<clipPath id="SVGID_4_">
			<use xlink:href="#SVGID_3_"  overflow="visible"/>
		</clipPath>
		<path clip-path="url(#SVGID_4_)" fill="#E8E8E8" d="M10.004,6.981c-1.42,0-2.155-0.587-2.803-1.105
			C6.601,5.396,6.082,4.981,5,4.981V4.019c1.42,0,2.154,0.587,2.803,1.104c0.601,0.48,1.119,0.896,2.201,0.896
			c1.086,0,1.602-0.411,2.199-0.888c0.644-0.514,1.373-1.096,2.791-1.112l0.011,0.964c-1.087,0.012-1.604,0.424-2.201,0.901
			C12.159,6.398,11.428,6.981,10.004,6.981z"/>
	</g>
</g>
</svg>
